<svg width="486" height="444" viewBox="0 0 486 444" fill="none" xmlns="http://www.w3.org/2000/svg">
<path opacity="0.5" d="M43.321 82.9515L93.6321 75.2276L136.219 117.815L128.495 168.126L78.1842 175.85L35.5971 133.263L43.321 82.9515Z" fill="#7EC2FA"/>
<path opacity="0.5" d="M27.762 86.4406L35.5715 35.5717L86.4404 27.7622L129.821 71.1429L122.012 122.012L71.1427 129.821L27.762 86.4406Z" stroke="#B7DBEF" stroke-width="2"/>
<path d="M391.19 328.262L373.048 331.048L370.263 349.189L455.427 434.354L473.569 431.568L476.354 413.427L391.19 328.262Z" stroke="#B7DBEF" stroke-width="2"/>
<path d="M418.805 376.123L416.741 389.563L456.916 429.738L470.356 427.675L472.42 414.234L432.245 374.06L418.805 376.123Z" fill="url(#paint0_linear_1201_32223)"/>
<path d="M446.47 395.754L437.755 395.754L437.755 404.468L439.788 404.467L439.788 397.787L446.469 397.787L446.47 395.754Z" fill="#B7DBEF"/>
<path opacity="0.3" d="M458.079 407.364L449.365 407.364L449.365 416.079L451.398 416.078L451.398 409.397L458.078 409.397L458.079 407.364Z" fill="#B7DBEF"/>
<path opacity="0.6" d="M452.271 401.555L443.556 401.555L443.556 410.269L445.589 410.268L445.589 403.588L452.27 403.588L452.271 401.555Z" fill="#B7DBEF"/>
<path opacity="0.1" d="M463.888 413.174L455.173 413.174L455.173 421.888L457.206 421.887L457.206 415.207L463.887 415.207L463.888 413.174Z" fill="#B7DBEF"/>
<defs>
<linearGradient id="paint0_linear_1201_32223" x1="418.805" y1="376.123" x2="470.356" y2="427.675" gradientUnits="userSpaceOnUse">
<stop stop-color="white"/>
<stop offset="0.546877" stop-color="#DBEDF7"/>
<stop offset="1" stop-color="#7EC2FA"/>
</linearGradient>
</defs>
</svg>
