<svg width="24" height="48" viewBox="0 0 24 48" fill="#7C7D81" xmlns="http://www.w3.org/2000/svg">
	<path d="M21.5991 48.0026C21.2601 48.0033 20.9249 47.9317 20.6157 47.7926C20.3066 47.6536 20.0306 47.4503 19.8063 47.1962L0.606252 25.5962C0.215736 25.1572 0 24.5901 0 24.0026C0 23.4151 0.215736 22.848 0.606252 22.409L19.8063 0.808992C20.0155 0.573558 20.2691 0.381649 20.5526 0.244223C20.836 0.106796 21.1437 0.0265431 21.4582 0.00804562C21.7727 -0.0104518 22.0877 0.0331686 22.3853 0.136416C22.6829 0.239664 22.9572 0.400517 23.1927 0.609792C23.4281 0.819066 23.62 1.07266 23.7574 1.3561C23.8949 1.63955 23.9751 1.94728 23.9936 2.26174C24.0121 2.57619 23.9685 2.89121 23.8652 3.18881C23.762 3.48641 23.6011 3.76076 23.3919 3.99619L5.60785 24.0026L23.3919 44.009C23.7 44.3544 23.9015 44.7816 23.9722 45.2391C24.0428 45.6965 23.9795 46.1646 23.79 46.5869C23.6004 47.0092 23.2926 47.3676 22.9039 47.6188C22.5151 47.87 22.0619 48.0033 21.5991 48.0026Z" />
</svg>
