<svg width="22" height="20" viewBox="0 0 22 20" fill="#171717" stroke="#171717" xmlns="http://www.w3.org/2000/svg">
<path d="M18.3168 17.8101C18.1216 18.0054 17.805 18.0054 17.6097 17.8101L2.52205 2.72242C2.32679 2.52716 2.32679 2.21058 2.52205 2.01532L3.34677 1.1906C3.54203 0.995336 3.85862 0.995336 4.05388 1.1906L19.1416 16.2783C19.3368 16.4735 19.3368 16.7901 19.1416 16.9854L18.3168 17.8101Z" />
<path d="M19.1402 2.01519C19.3354 2.21045 19.3354 2.52703 19.1402 2.72229L4.0525 17.81C3.85724 18.0052 3.54065 18.0052 3.34539 17.81L2.52067 16.9853C2.32541 16.79 2.32541 16.4734 2.52067 16.2782L17.6084 1.19047C17.8036 0.995205 18.1202 0.995205 18.3155 1.19047L19.1402 2.01519Z" />
</svg>
