<svg width="414" height="637" viewBox="0 0 414 637" fill="none" xmlns="http://www.w3.org/2000/svg">
<path opacity="0.5" d="M30.6873 67.5719L76.7654 60.4979L115.769 99.5019L108.695 145.58L62.6173 152.654L23.6133 113.65L30.6873 67.5719Z" fill="#7EC2FA"/>
<path opacity="0.5" d="M48.5808 79.6921L55.7685 32.8739L102.587 25.6862L142.539 65.6382L135.351 112.456L88.5328 119.644L48.5808 79.6921Z" stroke="#B7DBEF" stroke-width="2"/>
<path d="M99.0933 494.094L96.4064 511.596L148.72 563.909L166.222 561.222L168.908 543.721L116.595 491.407L99.0933 494.094Z" fill="url(#paint0_linear_1217_32224)"/>
<path d="M163.52 530.841L139.527 534.524L135.843 558.518L202.585 625.261L226.579 621.577L230.263 597.583L163.52 530.841Z" stroke="#B7DBEF" stroke-width="2"/>
<path d="M119.142 502.796L107.794 502.796L107.794 514.143L110.441 514.142L110.441 505.443L119.141 505.443L119.142 502.796Z" fill="#B7DBEF"/>
<path opacity="0.3" d="M134.261 517.914L122.913 517.914L122.913 529.261L125.561 529.26L125.561 520.561L134.26 520.561L134.261 517.914Z" fill="#B7DBEF"/>
<path opacity="0.6" d="M126.694 510.349L115.347 510.349L115.347 521.696L117.994 521.695L117.994 512.996L126.693 512.996L126.694 510.349Z" fill="#B7DBEF"/>
<path opacity="0.1" d="M141.827 525.479L130.48 525.479L130.48 536.826L133.127 536.825L133.127 528.126L141.826 528.126L141.827 525.479Z" fill="#B7DBEF"/>
<path d="M280.19 141.262L262.048 144.048L259.263 162.189L344.427 247.354L362.569 244.568L365.354 226.427L280.19 141.262Z" stroke="#B7DBEF" stroke-width="2"/>
<path d="M307.805 189.124L305.741 202.564L345.916 242.739L359.356 240.675L361.42 227.235L321.245 187.06L307.805 189.124Z" fill="url(#paint1_linear_1217_32224)"/>
<path d="M335.47 208.754L326.755 208.754L326.755 217.469L328.788 217.468L328.788 210.787L335.469 210.787L335.47 208.754Z" fill="#B7DBEF"/>
<path opacity="0.3" d="M347.079 220.364L338.365 220.364L338.365 229.079L340.398 229.078L340.398 222.397L347.078 222.397L347.079 220.364Z" fill="#B7DBEF"/>
<path opacity="0.6" d="M341.271 214.555L332.556 214.555L332.556 223.269L334.589 223.268L334.589 216.588L341.27 216.588L341.271 214.555Z" fill="#B7DBEF"/>
<path opacity="0.1" d="M352.888 226.174L344.173 226.174L344.173 234.888L346.206 234.887L346.206 228.207L352.887 228.207L352.888 226.174Z" fill="#B7DBEF"/>
<path opacity="0.5" d="M296.321 415.951L346.632 408.228L389.219 450.815L381.495 501.126L331.184 508.85L288.597 466.263L296.321 415.951Z" fill="#7EC2FA"/>
<path opacity="0.5" d="M280.762 419.441L288.572 368.572L339.44 360.762L382.821 404.143L375.012 455.012L324.143 462.821L280.762 419.441Z" stroke="#B7DBEF" stroke-width="2"/>
<defs>
<linearGradient id="paint0_linear_1217_32224" x1="99.0933" y1="494.094" x2="166.222" y2="561.222" gradientUnits="userSpaceOnUse">
<stop stop-color="white"/>
<stop offset="0.546877" stop-color="#DBEDF7"/>
<stop offset="1" stop-color="#7EC2FA"/>
</linearGradient>
<linearGradient id="paint1_linear_1217_32224" x1="307.805" y1="189.124" x2="359.356" y2="240.675" gradientUnits="userSpaceOnUse">
<stop stop-color="white"/>
<stop offset="0.546877" stop-color="#DBEDF7"/>
<stop offset="1" stop-color="#7EC2FA"/>
</linearGradient>
</defs>
</svg>
