<svg width="18" height="18" viewBox="0 0 18 18" fill="none" xmlns="http://www.w3.org/2000/svg">
<path d="M8.09569 2.2479C8.35242 2.04194 8.67171 1.92969 9.00084 1.92969C9.32997 1.92969 9.64926 2.04194 9.90598 2.2479L14.8881 6.24519C15.0571 6.38079 15.1935 6.55263 15.2872 6.74802C15.3809 6.94341 15.4295 7.15735 15.4294 7.37404V14.6255C15.4294 15.0091 15.277 15.377 15.0058 15.6483C14.7345 15.9195 14.3666 16.0719 13.983 16.0719H12.0544C11.6708 16.0719 11.3029 15.9195 11.0316 15.6483C10.7604 15.377 10.608 15.0091 10.608 14.6255V10.7683C10.608 10.6405 10.5572 10.5178 10.4668 10.4274C10.3763 10.337 10.2537 10.2862 10.1258 10.2862H7.87584C7.74797 10.2862 7.62533 10.337 7.53491 10.4274C7.44449 10.5178 7.39369 10.6405 7.39369 10.7683V14.6255C7.39369 15.0091 7.2413 15.377 6.97005 15.6483C6.69879 15.9195 6.33088 16.0719 5.94727 16.0719H4.01869C3.63508 16.0719 3.26717 15.9195 2.99591 15.6483C2.72466 15.377 2.57227 15.0091 2.57227 14.6255V7.37404C2.57227 6.93561 2.77155 6.52033 3.11355 6.24583L8.09569 2.24854V2.2479ZM9.30234 3.00004C9.2168 2.9315 9.11045 2.89414 9.00084 2.89414C8.89122 2.89414 8.78488 2.9315 8.69934 3.00004L3.71719 6.99733C3.66084 7.04248 3.61536 7.09972 3.58409 7.16481C3.55282 7.2299 3.53658 7.30119 3.53655 7.3734V14.6248C3.53655 14.8916 3.75255 15.107 4.01869 15.107H5.94727C6.07514 15.107 6.19777 15.0562 6.28819 14.9658C6.37861 14.8753 6.42941 14.7527 6.42941 14.6248V10.7677C6.42941 10.3841 6.5818 10.0162 6.85306 9.74491C7.12432 9.47365 7.49222 9.32126 7.87584 9.32126H10.1258C10.3158 9.32126 10.504 9.35869 10.6795 9.43142C10.855 9.50415 11.0145 9.61075 11.1488 9.74513C11.2832 9.87951 11.3897 10.039 11.4623 10.2146C11.535 10.3902 11.5724 10.5783 11.5723 10.7683V14.6255C11.5723 14.8923 11.7883 15.1076 12.0544 15.1076H13.983C14.1109 15.1076 14.2335 15.0568 14.3239 14.9664C14.4143 14.876 14.4651 14.7533 14.4651 14.6255V7.37404C14.4652 7.30188 14.449 7.23063 14.4179 7.16554C14.3867 7.10046 14.3414 7.04319 14.2851 6.99797L9.30298 3.00069L9.30234 3.00004Z" fill="#343A40"/>
</svg>
