<svg width="14" height="16" viewBox="0 0 14 16" fill="none" xmlns="http://www.w3.org/2000/svg">
<path d="M6.09569 1.2479C6.35242 1.04194 6.67171 0.929688 7.00084 0.929688C7.32997 0.929688 7.64926 1.04194 7.90598 1.2479L12.8881 5.24519C13.0571 5.38079 13.1935 5.55263 13.2872 5.74802C13.3809 5.94341 13.4295 6.15735 13.4294 6.37404V13.6255C13.4294 14.0091 13.277 14.377 13.0058 14.6483C12.7345 14.9195 12.3666 15.0719 11.983 15.0719H10.0544C9.67079 15.0719 9.30289 14.9195 9.03163 14.6483C8.76037 14.377 8.60798 14.0091 8.60798 13.6255V9.76833C8.60798 9.64046 8.55718 9.51782 8.46676 9.4274C8.37635 9.33698 8.25371 9.28619 8.12584 9.28619H5.87584C5.74797 9.28619 5.62533 9.33698 5.53491 9.4274C5.44449 9.51782 5.39369 9.64046 5.39369 9.76833V13.6255C5.39369 14.0091 5.2413 14.377 4.97005 14.6483C4.69879 14.9195 4.33088 15.0719 3.94727 15.0719H2.01869C1.63508 15.0719 1.26717 14.9195 0.995915 14.6483C0.724657 14.377 0.572266 14.0091 0.572266 13.6255V6.37404C0.572266 5.93561 0.771551 5.52033 1.11355 5.24583L6.09569 1.24854V1.2479ZM7.30234 2.00004C7.2168 1.9315 7.11045 1.89414 7.00084 1.89414C6.89122 1.89414 6.78488 1.9315 6.69934 2.00004L1.71719 5.99733C1.66084 6.04248 1.61536 6.09972 1.58409 6.16481C1.55282 6.2299 1.53658 6.30119 1.53655 6.3734V13.6248C1.53655 13.8916 1.75255 14.107 2.01869 14.107H3.94727C4.07514 14.107 4.19777 14.0562 4.28819 13.9658C4.37861 13.8753 4.42941 13.7527 4.42941 13.6248V9.76769C4.42941 9.38407 4.5818 9.01616 4.85306 8.74491C5.12432 8.47365 5.49222 8.32126 5.87584 8.32126H8.12584C8.31584 8.32126 8.50398 8.35869 8.67951 8.43142C8.85504 8.50415 9.01452 8.61075 9.14884 8.74513C9.28317 8.87951 9.3897 9.03904 9.46235 9.21461C9.535 9.39017 9.57235 9.57833 9.57227 9.76833V13.6255C9.57227 13.8923 9.78827 14.1076 10.0544 14.1076H11.983C12.1109 14.1076 12.2335 14.0568 12.3239 13.9664C12.4143 13.876 12.4651 13.7533 12.4651 13.6255V6.37404C12.4652 6.30188 12.449 6.23063 12.4179 6.16554C12.3867 6.10046 12.3414 6.04319 12.2851 5.99797L7.30298 2.00069L7.30234 2.00004Z" fill="#444444"/>
</svg>
