<svg width="21" height="20" viewBox="0 0 21 20" fill="#FFFFFF" xmlns="http://www.w3.org/2000/svg">
<g clip-path="url(#clip0_1001_13914)">
<path d="M0.0927734 6.70914C0.159047 6.25826 0.209541 5.8048 0.293779 5.35719C0.771289 2.82192 2.63448 1.09697 5.29853 1.00857C8.50612 0.902394 11.7234 0.896781 14.9305 1.0081C17.8301 1.10866 19.9299 3.17692 20.0205 5.97108C20.1169 8.93806 20.1169 11.9123 20.0205 14.8793C19.9299 17.6734 17.8308 19.7415 14.9308 19.8422C11.7237 19.9538 8.50564 19.9566 5.29877 19.8406C2.39875 19.7356 0.394039 17.6627 0.200074 14.8643C0.183323 14.6223 0.12943 14.3823 0.0927734 14.1414C0.0927734 11.6639 0.0927734 9.18642 0.0927734 6.70914ZM10.0955 18.1863C11.5632 18.1863 13.0324 18.2286 14.4982 18.1765C16.7964 18.0944 18.21 16.7731 18.2636 14.5612C18.3302 11.8052 18.3302 9.0454 18.2636 6.28912C18.21 4.07774 16.7954 2.72557 14.4982 2.67856C11.5824 2.61916 8.66343 2.61963 5.74763 2.67856C3.46787 2.72463 2.05015 4.04945 1.98825 6.23651C1.90959 9.02739 1.90959 11.8232 1.98825 14.6141C2.05015 16.8009 3.46787 18.0951 5.74788 18.1765C7.19522 18.2284 8.64619 18.1863 10.0955 18.1863Z"/>
<path d="M10.0926 5.51855C7.27804 5.51855 4.99609 7.7166 4.99609 10.428C4.99609 13.1396 7.27804 15.3376 10.0926 15.3376C12.9074 15.3376 15.1891 13.1396 15.1891 10.428C15.1891 7.7166 12.9074 5.51855 10.0926 5.51855ZM10.0926 13.6473C8.2469 13.6473 6.75077 12.206 6.75077 10.428C6.75077 8.64994 8.2469 7.20866 10.0926 7.20866C11.9383 7.20866 13.4344 8.64994 13.4344 10.428C13.4344 12.206 11.9383 13.6473 10.0926 13.6473Z"/>
<path d="M16.7003 5.29411C16.7003 5.93909 16.1575 6.462 15.488 6.462C14.8184 6.462 14.2754 5.93909 14.2754 5.29411C14.2754 4.64889 14.8184 4.12598 15.488 4.12598C16.1575 4.12598 16.7003 4.64889 16.7003 5.29411Z"/>
</g>
<defs>
<clipPath id="clip0_1001_13914">
<rect width="20" height="19" transform="translate(0.0927734 0.926758)"/>
</clipPath>
</defs>
</svg>
