<svg width="20" height="20" viewBox="0 0 20 20" fill="#FFFFFF" xmlns="http://www.w3.org/2000/svg">
<path d="M17.5732 0.926758H1.71625C0.849803 0.926758 0.0927734 1.5502 0.0927734 2.40647V18.2986C0.0927734 19.1595 0.849803 19.9268 1.71625 19.9268H17.5685C18.4396 19.9268 19.0927 19.1545 19.0927 18.2986V2.40647C19.0978 1.5502 18.4396 0.926758 17.5732 0.926758ZM5.98234 16.7642H3.26042V8.30113H5.98234V16.7642ZM4.71553 7.01439H4.69602C3.82491 7.01439 3.26085 6.36593 3.26085 5.55419C3.26085 4.72761 3.83975 4.09441 4.73038 4.09441C5.621 4.09441 6.16598 4.72294 6.18549 5.55419C6.18506 6.36593 5.621 7.01439 4.71553 7.01439ZM15.9302 16.7642H13.2083V12.1368C13.2083 11.0281 12.8122 10.2707 11.8274 10.2707C11.075 10.2707 10.6297 10.7796 10.4316 11.2754C10.3574 11.4535 10.3375 11.6961 10.3375 11.9438V16.7642H7.61557V8.30113H10.3375V9.47888C10.7336 8.91482 11.3524 8.10308 12.7922 8.10308C14.579 8.10308 15.9306 9.28082 15.9306 11.8199L15.9302 16.7642Z" />
</svg>
