<svg width="268" height="17" viewBox="0 0 268 17" fill="none" xmlns="http://www.w3.org/2000/svg">
<path d="M5.30693 4.49094H5.53276L11.5172 15.9807H21.143V1.02008H15.4974L15.8361 12.5098H15.6103L9.54118 1.02008H0V15.9807H5.64567L5.30693 4.49094Z" fill="white"/>
<path d="M33.3121 16.1004C39.0425 16.1004 43.1073 15.2227 43.1073 10.6148V6.38595C43.1073 1.77808 39.0425 0.900391 33.3121 0.900391C27.5818 0.900391 23.5169 1.77808 23.5169 6.38595V10.6148C23.5169 15.2227 27.5818 16.1004 33.3121 16.1004ZM33.3121 12.6295C30.3764 12.6295 29.4166 12.4101 29.3319 10.176V6.80485C29.4166 4.59068 30.3764 4.37126 33.3121 4.37126C36.2479 4.37126 37.2923 4.59068 37.2923 6.80485V10.176C37.2923 12.4101 36.2479 12.6295 33.3121 12.6295Z" fill="white"/>
<path d="M51.0047 8.54029V4.49094H55.3801C57.2431 4.49094 57.723 4.86994 57.723 6.20643C57.723 7.90197 57.8077 8.54029 55.3801 8.54029H51.0047ZM45.359 15.9807H51.0047V12.0112H55.3801C57.0738 12.0112 57.7512 12.7692 57.6948 13.8862V15.9807H63.3405V12.9686C63.3405 11.2731 61.8444 10.3755 59.5296 10.3156V10.156C63.5381 9.49777 63.5381 8.0416 63.5381 5.54816C63.5381 1.81798 61.1386 1.07992 56.2551 1.02008H45.359V15.9807Z" fill="white"/>
<path d="M65.8863 15.9807H77.3752C83.275 15.9807 85.138 14.0458 85.138 9.95656V6.8248C85.138 2.57598 82.5128 1.02008 76.6131 1.02008H65.8863V15.9807ZM71.532 4.49094H76.4719C78.4479 4.49094 79.323 4.88989 79.323 6.8248V9.95656C79.323 11.5324 78.5608 12.5098 76.4719 12.5098H71.532V4.49094Z" fill="white"/>
<path d="M93.42 1.02008H87.7743V15.9807H93.42V1.02008Z" fill="white"/>
<path d="M103.927 6.76496C102.431 6.68517 101.612 6.64527 101.612 5.44842C101.612 4.61063 101.866 4.17178 104.915 4.17178C107.173 4.17178 108.077 4.17178 108.077 5.70774H113.497V5.08937C113.497 0.960234 109.545 0.900391 104.915 0.900391C99.3823 0.900391 95.9667 1.17966 95.9667 5.46837C95.9667 9.75708 99.0154 9.73714 104.238 9.99645L105.48 10.0563C108.133 10.176 108.444 10.156 108.444 11.4526C108.444 12.7093 107.569 12.829 104.915 12.829C102.149 12.829 101.358 12.6694 101.358 11.1135H95.9385C95.9385 16.0206 99.5235 16.1004 104.915 16.1004C114.23 16.1004 114.089 13.6668 114.089 11.1933C114.089 7.76233 112.537 7.2038 106.27 6.88464L103.927 6.76496Z" fill="white"/>
<path d="M122.27 1.02008H116.625V15.9807H122.27V10.1161H123.964L129.864 15.9807H136.865L128.791 8.36076L136.243 1.02008H129.412L123.964 6.64527H122.27V1.02008Z" fill="white"/>
<path d="M152.455 4.51089H152.625L158.044 15.9807H162.928L168.291 4.51089H168.489L167.924 15.9807H173.57V1.02008H164.396L160.557 10.4154H160.359L156.322 1.02008H147.374V15.9807H153.02L152.455 4.51089Z" fill="white"/>
<path d="M189.147 13.4075L190.248 15.9807H196.007L189.571 1.02008H180.989L174.638 15.9807H180.509L181.554 13.4075H189.147ZM188.018 10.4951H182.768L185.336 4.0122H185.393L188.018 10.4951Z" fill="white"/>
<path d="M204.43 6.76496C202.934 6.68517 202.115 6.64527 202.115 5.44842C202.115 4.61063 202.369 4.17178 205.418 4.17178C207.676 4.17178 208.58 4.17178 208.58 5.70774H213.999V5.08937C213.999 0.960234 210.047 0.900391 205.418 0.900391C199.885 0.900391 196.47 1.17966 196.47 5.46837C196.47 9.75708 199.518 9.73714 204.74 9.99645L205.983 10.0563C208.636 10.176 208.947 10.156 208.947 11.4526C208.947 12.7093 208.071 12.829 205.418 12.829C202.652 12.829 201.861 12.6694 201.861 11.1135H196.441C196.441 16.0206 200.026 16.1004 205.418 16.1004C214.733 16.1004 214.592 13.6668 214.592 11.1933C214.592 7.76233 213.04 7.2038 206.773 6.88464L204.43 6.76496Z" fill="white"/>
<path d="M222.773 1.02008H217.128V15.9807H222.773V10.1161H224.467L230.367 15.9807H237.367L229.294 8.36076L236.746 1.02008H229.915L224.467 6.64527H222.773V1.02008Z" fill="white"/>
<path d="M243.661 1.02008H238.015V15.9807H243.661V1.02008Z" fill="white"/>
<path d="M252.164 4.49094H252.39L258.374 15.9807H268V1.02008H262.354L262.693 12.5098H262.467L256.398 1.02008H246.857V15.9807H252.503L252.164 4.49094Z" fill="white"/>
</svg>
