<svg width="20" height="17" viewBox="0 0 20 17" fill="none" xmlns="http://www.w3.org/2000/svg">
<path d="M1.75065 0.625H18.2507C18.4938 0.625 18.7269 0.717187 18.8988 0.881282C19.0707 1.04538 19.1673 1.26794 19.1673 1.5V15.5C19.1673 15.7321 19.0707 15.9546 18.8988 16.1187C18.7269 16.2828 18.4938 16.375 18.2507 16.375H1.75065C1.50754 16.375 1.27438 16.2828 1.10247 16.1187C0.930561 15.9546 0.833984 15.7321 0.833984 15.5V1.5C0.833984 1.26794 0.930561 1.04538 1.10247 0.881282C1.27438 0.717187 1.50754 0.625 1.75065 0.625V0.625ZM17.334 4.33325L10.0667 10.5458L2.66732 4.314V14.625H17.334V4.33325ZM3.13573 2.375L10.0566 8.20425L16.8775 2.375H3.13573Z" fill="black"/>
</svg>
