<svg width="14" height="14" viewBox="0 0 14 14" stroke="#418FDC" fill="none" xmlns="http://www.w3.org/2000/svg">
<path d="M4.75 0.500402V11.0004M8.78969 2.8954L5.21031 0.605402C5.06793 0.53428 4.91063 0.498169 4.75149 0.500071C4.59234 0.501974 4.43595 0.541834 4.29531 0.616339L0.765937 2.98446C0.685642 3.027 0.618457 3.09062 0.571601 3.16847C0.524746 3.24632 0.499992 3.33547 0.5 3.42634V12.6701C0.499992 12.7563 0.522285 12.8411 0.564712 12.9162C0.607139 12.9912 0.668259 13.054 0.742136 13.0985C0.816012 13.143 0.900133 13.1676 0.986329 13.1699C1.07253 13.1723 1.15787 13.1523 1.23406 13.112L4.29094 11.1185C4.43272 11.0434 4.59051 11.0035 4.75096 11.0022C4.91141 11.0009 5.06982 11.0382 5.21281 11.111L8.70844 13.3923C8.85018 13.4645 9.00711 13.5019 9.1662 13.5013C9.32528 13.5007 9.48193 13.4621 9.62313 13.3888L13.2303 11.0157C13.3116 10.9735 13.3797 10.9098 13.4273 10.8316C13.4748 10.7533 13.5 10.6635 13.5 10.572V1.33071C13.5 1.24449 13.4777 1.15972 13.4353 1.08465C13.3929 1.00959 13.3317 0.946765 13.2579 0.902295C13.184 0.857824 13.0999 0.833215 13.0137 0.830858C12.9275 0.8285 12.8421 0.848474 12.7659 0.88884L9.70344 2.88446C9.56296 2.95876 9.40679 2.99851 9.24788 3.00041C9.08898 3.00231 8.93191 2.96632 8.78969 2.8954V2.8954ZM9.25 3.0004V13.5004V3.0004Z" stroke-linecap="round" stroke-linejoin="round"/>
</svg>
