<svg width="17" height="15" viewBox="0 0 17 15" fill="none" stroke="#B7DBEF" xmlns="http://www.w3.org/2000/svg">
<path d="M15.1909 4.41721L8.89119 1.45334C8.76929 1.39602 8.6352 1.36621 8.49928 1.36621C8.36336 1.36621 8.22926 1.39602 8.10737 1.45334L1.80761 4.41721C1.5661 4.53001 1.36249 4.70493 1.21978 4.92223C1.07707 5.13952 1.00094 5.39053 1 5.64689V11.9915C1 12.7507 1.65402 13.3662 2.46092 13.3662H14.5391C15.346 13.3662 16 12.7507 16 11.9915V5.64689C15.9989 5.39038 15.9226 5.13927 15.7796 4.92197C15.6366 4.70466 15.4327 4.52982 15.1909 4.41721V4.41721Z" stroke-width="1.05018" stroke-linecap="round" stroke-linejoin="round"/>
<path d="M13.25 11.3662L8.5374 7.93871C8.3838 7.827 8.19477 7.76635 8.00018 7.76635C7.8056 7.76635 7.61656 7.827 7.46297 7.93871L2.75 11.3662M10.0417 8.87757L15 5.36621M1 5.36621L6.06771 8.94576" stroke-width="1.05018" stroke-linecap="round" stroke-linejoin="round"/>
</svg>
