<svg width="16" height="17" viewBox="0 0 16 17" fill="none" stroke="#B7DBEF" xmlns="http://www.w3.org/2000/svg">
	<path d="M14.563 12.4703C14.0286 11.9319 12.7342 11.1461 12.1062 10.8294C11.2884 10.4175 11.2211 10.3838 10.5783 10.8614C10.1496 11.1801 9.8645 11.4648 9.3627 11.3577C8.86091 11.2507 7.7705 10.6473 6.81572 9.69565C5.86094 8.74396 5.22251 7.62199 5.11515 7.12191C5.00779 6.62184 5.29722 6.34017 5.6129 5.91043C6.05782 5.30468 6.02416 5.20373 5.64386 4.38597C5.34737 3.74994 4.53864 2.46779 3.99815 1.93608C3.41996 1.365 3.41996 1.46595 3.04741 1.62075C2.7441 1.74836 2.45312 1.90347 2.17811 2.08415C1.63963 2.44187 1.34078 2.73902 1.13178 3.18559C0.922787 3.63216 0.828891 4.67909 1.9082 6.63967C2.9875 8.60026 3.74473 9.60277 5.31203 11.1656C6.87933 12.7284 8.0845 13.5687 9.84632 14.5567C12.0258 15.7773 12.8618 15.5394 13.3097 15.3307C13.7577 15.1221 14.0562 14.826 14.4146 14.2875C14.5958 14.013 14.7512 13.7223 14.879 13.4193C15.0342 13.0481 15.1352 13.0481 14.563 12.4703Z" stroke-width="1.23072" stroke-miterlimit="10"/>
</svg>
