<svg width="21" height="11" viewBox="0 0 21 11" fill="none" xmlns="http://www.w3.org/2000/svg">
<path d="M20.668 10.5C20.668 10.7761 20.4441 11 20.168 11H0.830759C0.554617 11 0.330759 10.7761 0.330759 10.5V9.33316C0.330759 9.05702 0.554617 8.83316 0.830759 8.83316H20.168C20.4441 8.83316 20.668 9.05702 20.668 9.33316V10.5ZM20.668 6.08316C20.668 6.35931 20.4441 6.58316 20.168 6.58316H5.83076C5.55462 6.58316 5.33076 6.35931 5.33076 6.08316V4.91684C5.33076 4.64069 5.55462 4.41684 5.83076 4.41684H20.168C20.4441 4.41684 20.668 4.64069 20.668 4.91684V6.08316ZM20.168 0C20.4441 0 20.668 0.223858 20.668 0.5V1.66684C20.668 1.94298 20.4441 2.16684 20.168 2.16684H10.8308C10.5546 2.16684 10.3308 1.94298 10.3308 1.66684V0.5C10.3308 0.223858 10.5546 0 10.8308 0H20.168Z" fill="white"/>
</svg>
