<svg width="70" height="51" viewBox="0 0 70 51" fill="none" xmlns="http://www.w3.org/2000/svg">
<rect width="70" height="51" rx="4" fill="#EDEDED"/>
<path d="M26.035 37.25L26.01 37.275L25.9837 37.25H23.74C23.411 37.2497 23.0956 37.1187 22.8631 36.886C22.6306 36.6533 22.5 36.3377 22.5 36.0088V15.9913C22.5023 15.663 22.6336 15.3488 22.8656 15.1165C23.0977 14.8843 23.4117 14.7526 23.74 14.75H46.26C46.945 14.75 47.5 15.3063 47.5 15.9913V36.0088C47.4977 36.337 47.3664 36.6512 47.1344 36.8835C46.9023 37.1157 46.5883 37.2474 46.26 37.25H26.035ZM45 29.75V17.25H25V34.75L37.5 22.25L45 29.75ZM45 33.285L37.5 25.785L28.535 34.75H45V33.285ZM30 24.75C29.337 24.75 28.7011 24.4866 28.2322 24.0178C27.7634 23.5489 27.5 22.913 27.5 22.25C27.5 21.587 27.7634 20.9511 28.2322 20.4822C28.7011 20.0134 29.337 19.75 30 19.75C30.663 19.75 31.2989 20.0134 31.7678 20.4822C32.2366 20.9511 32.5 21.587 32.5 22.25C32.5 22.913 32.2366 23.5489 31.7678 24.0178C31.2989 24.4866 30.663 24.75 30 24.75Z" fill="#CCCCCC"/>
</svg>
