<svg width="20" height="20" viewBox="0 0 20 20" fill="#FFFFFF" xmlns="http://www.w3.org/2000/svg">
	<path d="M19.7077 18.0858L14.4545 12.8326C15.4953 11.447 16.0571 9.76053 16.0552 8.02761C16.0552 3.60121 12.454 0 8.02761 0C3.60121 0 0 3.60121 0 8.02761C0 12.454 3.60121 16.0552 8.02761 16.0552C9.76053 16.0571 11.447 15.4953 12.8326 14.4545L18.0858 19.7077C18.3047 19.9033 18.5901 20.0078 18.8835 19.9995C19.1769 19.9913 19.456 19.8711 19.6636 19.6636C19.8711 19.456 19.9913 19.1769 19.9995 18.8835C20.0078 18.5901 19.9033 18.3047 19.7077 18.0858ZM2.2936 8.02761C2.2936 6.89353 2.6299 5.78492 3.25996 4.84197C3.89002 3.89901 4.78555 3.16407 5.8333 2.73008C6.88105 2.29608 8.03397 2.18253 9.14626 2.40378C10.2585 2.62503 11.2802 3.17114 12.0822 3.97305C12.8841 4.77497 13.4302 5.79667 13.6514 6.90896C13.8727 8.02125 13.7591 9.17416 13.3251 10.2219C12.8911 11.2697 12.1562 12.1652 11.2133 12.7953C10.2703 13.4253 9.16169 13.7616 8.02761 13.7616C6.50742 13.7598 5.05001 13.1551 3.97507 12.0801C2.90013 11.0052 2.29543 9.5478 2.2936 8.02761Z" />
</svg>
