<svg width="30" height="30" viewBox="0 0 30 30" fill="none" xmlns="http://www.w3.org/2000/svg">
<path d="M27.6317 7.23163C27.5245 7.12441 27.4172 7.01713 27.2028 7.01713H6.82606L6.28981 4.22877C6.28981 4.01426 5.96807 3.7998 5.75357 3.7998H2.5362C2.21451 3.79975 2 4.01426 2 4.336C2 4.65774 2.21451 4.87225 2.53625 4.87225H5.32465L7.89855 17.9562C8.22028 19.6722 9.82897 20.9591 11.5449 20.9591H23.8781C24.1999 20.9591 24.4144 20.7446 24.4144 20.4229C24.4144 20.1011 24.1999 19.8866 23.8781 19.8866H11.6521C10.7941 19.8866 9.9362 19.4576 9.50718 18.7069L25.1651 16.562C25.3796 16.562 25.594 16.3475 25.594 16.133L27.739 7.55337C27.739 7.55337 27.739 7.33886 27.6317 7.23163ZM24.6288 15.5968L8.97094 17.6345L7.04051 7.98234H26.452L24.6288 15.5968Z" fill="white" stroke="white" stroke-width="0.5"/>
<path d="M11.1157 22.4375C9.61429 22.4375 8.43457 23.6172 8.43457 25.1186C8.43457 26.6201 9.61429 27.7997 11.1157 27.7997C12.6172 27.7997 13.7968 26.62 13.7968 25.1186C13.7969 23.6172 12.6172 22.4375 11.1157 22.4375ZM11.1157 26.7273C10.2577 26.7273 9.50701 25.9766 9.50701 25.1186C9.50701 24.2607 10.2577 23.5099 11.1157 23.5099C11.9737 23.5099 12.7244 24.2607 12.7244 25.1186C12.7244 25.9766 11.9737 26.7273 11.1157 26.7273Z" fill="white" stroke="white" stroke-width="0.25"/>
<path d="M21.8403 22.4375C20.3388 22.4375 19.1592 23.6172 19.1592 25.1186C19.1592 26.6201 20.3389 27.7997 21.8403 27.7997C23.3418 27.7997 24.5214 26.62 24.5214 25.1186C24.5214 23.6172 23.3417 22.4375 21.8403 22.4375ZM21.8403 26.7273C20.9823 26.7273 20.2316 25.9766 20.2316 25.1186C20.2316 24.2607 20.9823 23.5099 21.8403 23.5099C22.6983 23.5099 23.449 24.2607 23.449 25.1186C23.449 25.9766 22.6982 26.7273 21.8403 26.7273Z" fill="white" stroke="white" stroke-width="0.25"/>
</svg>
