<svg width="462" height="356" viewBox="0 0 462 356" fill="none" xmlns="http://www.w3.org/2000/svg">
<path d="M368.183 159.097C367.89 158.985 360.842 156.311 358.293 150.21C356.941 146.95 357.123 143.356 358.864 139.498C360.368 136.155 363.029 132.129 366.107 127.449C370.732 120.414 375.983 112.461 379.006 104.27C382.488 94.8396 382.265 87.0669 378.309 80.506C372.543 70.9224 371.15 58.3718 374.479 46.0581C377.752 33.9393 385.135 23.5757 394.705 17.5859L395.234 18.4356C375.384 30.833 367.584 60.7399 379.173 79.9906C388.436 95.3689 376.025 114.23 366.957 128.006C363.906 132.645 361.274 136.642 359.797 139.916C358.181 143.51 357.986 146.839 359.24 149.82C361.622 155.531 368.475 158.136 368.545 158.164L368.183 159.097Z" fill="#4E4774"/>
<path d="M399.845 103.294H396.391C394.914 103.294 393.702 102.097 393.702 100.606V92.4433C393.702 90.9668 394.9 89.7549 396.391 89.7549H399.845C401.322 89.7549 402.534 90.9528 402.534 92.4433V100.606C402.534 102.097 401.322 103.294 399.845 103.294ZM396.391 91.0086C395.597 91.0086 394.956 91.6493 394.956 92.4433V100.606C394.956 101.4 395.597 102.041 396.391 102.041H399.845C400.639 102.041 401.28 101.4 401.28 100.606V92.4433C401.28 91.6493 400.639 91.0086 399.845 91.0086H396.391Z" fill="#7EC2FA"/>
<path d="M133.609 248.274H169.074L211.573 89.8249L187.016 77.1489L133.609 248.274Z" fill="#7EC2FA"/>
<path d="M159.059 244.889H151.356C148.249 244.889 145.421 243.455 143.583 240.961C141.744 238.454 141.215 235.334 142.148 232.367L185.636 93.0148C186.486 90.2846 188.492 88.0838 191.125 86.9833C193.757 85.8829 196.738 85.9943 199.273 87.3176L200.666 88.042C204.678 90.1036 206.74 94.77 205.57 99.1299L168.391 237.757L167.834 237.604L168.391 237.757C167.263 241.95 163.419 244.889 159.059 244.889ZM194.844 87.3734C193.729 87.3734 192.615 87.5962 191.57 88.028C189.244 89.0031 187.489 90.9393 186.737 93.3352L143.248 232.701C142.441 235.306 142.9 238.064 144.516 240.265C146.132 242.466 148.625 243.733 151.356 243.733H159.059C162.903 243.733 166.274 241.142 167.263 237.437L204.441 98.8096C205.472 94.9789 203.661 90.8697 200.123 89.0588L198.73 88.3345C197.518 87.6937 196.181 87.3734 194.844 87.3734Z" fill="#418FDC"/>
<path d="M394.261 7.33398H401.964V42.158C401.964 43.3281 401.017 44.2753 399.846 44.2753H396.378C395.208 44.2753 394.261 43.3281 394.261 42.158V7.33398Z" fill="#E5E4F0"/>
<path d="M394.624 22.2106H401.616C402.271 22.2106 402.814 21.6813 402.814 21.0127V8.54565H393.44V21.0127C393.426 21.6813 393.969 22.2106 394.624 22.2106Z" fill="#9290C2"/>
<path d="M328.08 40.2212L316.95 44.4418L265.857 63.804L260.939 50.8355L268.322 48.0357L323.177 27.2527L328.08 40.2212Z" fill="#E5E4F0"/>
<path d="M320.364 46.6429L403.468 9.79912C404.485 9.29765 404.944 8.11363 404.54 7.05498L402.395 1.41349C401.991 0.354837 400.863 -0.216276 399.776 0.0762461L313.134 27.5733C311.894 27.9494 311.114 29.022 311.449 29.9135L317.55 46.03C317.884 46.8937 319.18 47.1862 320.364 46.6429Z" fill="#7EC2FA"/>
<path d="M321.172 43.9823C320.712 43.9823 320.238 43.8848 319.793 43.7037C318.873 43.3276 318.177 42.6033 317.828 41.67L314.527 32.9779C314.179 32.0446 314.221 31.0417 314.653 30.1502C315.084 29.2587 315.85 28.604 316.784 28.2976L397.339 2.73672C399.15 2.16561 401.086 3.0989 401.768 4.88189C402.437 6.65095 401.615 8.64288 399.874 9.42294L322.606 43.6759C322.161 43.8709 321.659 43.9823 321.172 43.9823ZM398.439 3.72573C398.202 3.72573 397.952 3.76752 397.715 3.83717L317.16 29.398C316.519 29.6069 316.004 30.0388 315.711 30.6517C315.419 31.2506 315.391 31.9332 315.628 32.56L318.915 41.2521C319.152 41.8789 319.625 42.3665 320.238 42.6311C320.851 42.8958 321.534 42.8819 322.147 42.6172L399.414 8.36429C400.584 7.84889 401.155 6.49772 400.696 5.29977C400.334 4.3247 399.414 3.72573 398.439 3.72573Z" fill="#418FDC"/>
<path d="M302.729 51.0029C303.314 50.7801 303.607 50.1393 303.384 49.5543L298.495 36.6415C298.272 36.0565 297.631 35.7639 297.046 35.9868C296.461 36.2097 296.168 36.8504 296.391 37.4355L301.28 50.3483C301.503 50.9333 302.158 51.2258 302.729 51.0029Z" fill="#9290C2"/>
<path d="M279.87 59.667C280.455 59.4441 280.747 58.8034 280.524 58.2183L275.635 45.3056C275.412 44.7205 274.771 44.428 274.186 44.6509C273.601 44.8738 273.309 45.5145 273.532 46.0996L278.421 59.0123C278.63 59.5974 279.285 59.8899 279.87 59.667Z" fill="#9290C2"/>
<path d="M268.531 66.2976L205.319 90.2566C204.107 90.7163 202.756 90.1034 202.296 88.8915L196.724 74.1818C196.264 72.9699 196.877 71.6188 198.089 71.1591L261.302 47.2001C262.514 46.7405 263.865 47.3534 264.325 48.5652L264.659 49.4289L269.576 62.3974L269.91 63.261C270.342 64.4868 269.743 65.838 268.531 66.2976Z" fill="#7EC2FA"/>
<path d="M197.935 77.4135L265.549 51.783C265.981 51.6158 266.19 51.1422 266.037 50.7104C265.87 50.2786 265.396 50.0697 264.964 50.2229L197.35 75.8534C196.918 76.0205 196.709 76.4941 196.863 76.926C197.016 77.3578 197.503 77.5667 197.935 77.4135Z" fill="#418FDC"/>
<path d="M201.655 87.2338L269.269 61.6033C269.701 61.4362 269.91 60.9625 269.757 60.5307C269.59 60.0989 269.116 59.89 268.684 60.0432L201.07 85.6737C200.638 85.8408 200.429 86.3144 200.582 86.7463C200.749 87.1781 201.223 87.4009 201.655 87.2338Z" fill="#418FDC"/>
<path d="M391.447 51.1145H404.791C405.042 51.1145 405.237 50.9195 405.237 50.6688V48.2729C405.237 48.0222 405.042 47.8271 404.791 47.8271H391.447C391.196 47.8271 391.001 48.0222 391.001 48.2729V50.6688C391.001 50.9195 391.196 51.1145 391.447 51.1145Z" fill="#E5E4F0"/>
<path d="M388.214 78.8065H402.019C404.554 78.8065 406.392 76.3827 405.696 73.945L401.587 59.2632C401.127 57.6056 399.623 56.4634 397.909 56.4634H392.323C390.61 56.4634 389.106 57.6056 388.646 59.2632L384.537 73.945C383.854 76.3967 385.679 78.8065 388.214 78.8065Z" fill="#418FDC"/>
<path d="M391.21 78.8065H405.014C407.549 78.8065 409.388 76.3827 408.691 73.945L404.582 59.2632C404.122 57.6056 402.618 56.4634 400.905 56.4634H395.319C393.605 56.4634 392.101 57.6056 391.641 59.2632L387.532 73.945C386.85 76.3967 388.688 78.8065 391.21 78.8065Z" fill="#7EC2FA"/>
<path d="M396.572 46.6152H399.665C400.11 46.6152 400.459 46.9774 400.459 47.4092V56.4913H395.778V47.4092C395.778 46.9635 396.141 46.6152 396.572 46.6152Z" fill="#7EC2FA"/>
<path d="M402.689 40.3467H402.926C403.316 40.3467 403.636 40.6671 403.636 41.0571V51.56C403.636 51.9501 403.316 52.2704 402.926 52.2704H402.689C402.299 52.2704 401.979 51.9501 401.979 51.56V41.0571C401.979 40.6671 402.299 40.3467 402.689 40.3467Z" fill="#9290C2"/>
<path d="M393.313 40.3467H393.55C393.94 40.3467 394.261 40.6671 394.261 41.0571V51.56C394.261 51.9501 393.94 52.2704 393.55 52.2704H393.313C392.923 52.2704 392.603 51.9501 392.603 51.56V41.0571C392.589 40.6671 392.909 40.3467 393.313 40.3467Z" fill="#9290C2"/>
<path d="M392.283 51.6715H392.589V47.2837H392.283C392.06 47.2837 391.879 47.4648 391.879 47.6877V51.2676C391.879 51.4765 392.06 51.6715 392.283 51.6715Z" fill="#7EC2FA"/>
<path d="M403.956 51.6715H403.649V47.2837H403.956C404.179 47.2837 404.36 47.4648 404.36 47.6877V51.2676C404.36 51.4765 404.179 51.6715 403.956 51.6715Z" fill="#7EC2FA"/>
<path d="M398.118 8.54539C399.495 8.54539 400.612 7.42906 400.612 6.052C400.612 4.67493 399.495 3.55859 398.118 3.55859C396.741 3.55859 395.625 4.67493 395.625 6.052C395.625 7.42906 396.741 8.54539 398.118 8.54539Z" fill="#E5E4F0"/>
<path d="M393.424 68.0527C393.424 70.6436 395.527 72.747 398.118 72.747C400.709 72.747 402.812 70.6436 402.812 68.0527C402.812 65.4618 400.709 63.3584 398.118 63.3584C395.527 63.3584 393.424 65.4618 393.424 68.0527Z" fill="#418FDC"/>
<path d="M395.11 68.0527C395.11 69.7104 396.462 71.0615 398.119 71.0615C399.777 71.0615 401.128 69.7104 401.128 68.0527C401.128 66.3951 399.777 65.0439 398.119 65.0439C396.462 65.0439 395.11 66.3951 395.11 68.0527Z" fill="#7EC2FA"/>
<path d="M203.027 95.8982C210.477 94.1392 215.09 86.6742 213.331 79.2247C211.572 71.7752 204.107 67.1621 196.657 68.9212C189.208 70.6802 184.595 78.1452 186.354 85.5947C188.113 93.0442 195.578 97.6572 203.027 95.8982Z" fill="#E5E4F0"/>
<path d="M192.449 82.4279C192.449 86.5092 195.764 89.8245 199.846 89.8245C203.927 89.8245 207.242 86.5092 207.242 82.4279C207.242 78.3465 203.927 75.0312 199.846 75.0312C195.751 75.0313 192.449 78.3326 192.449 82.4279Z" fill="#9290C2"/>
<path d="M192.976 134.511C192.976 138.174 190.009 141.141 186.345 141.141C182.682 141.141 179.715 138.174 179.715 134.511C179.715 130.847 182.682 127.88 186.345 127.88C190.009 127.88 192.976 130.847 192.976 134.511Z" fill="#418FDC"/>
<path d="M189.467 134.608L184.689 151.853L171.944 197.988L156.189 254.932L150.659 253.4L178.114 154.096L179.159 150.335L183.923 133.09L189.467 134.608Z" fill="#E5E4F0"/>
<path d="M184.382 151.798L179.465 150.433C178.531 150.168 177.988 149.207 178.239 148.273L182.153 134.135C182.794 131.836 185.162 130.499 187.446 131.126C189.745 131.753 191.082 134.135 190.455 136.419L186.541 150.558C186.276 151.519 185.315 152.062 184.382 151.798Z" fill="#9290C2"/>
<path d="M157.581 255.309L149.279 253.01L164.49 197.988C164.769 196.971 165.828 196.372 166.845 196.651L171.455 197.933C172.472 198.211 173.071 199.27 172.792 200.287L157.581 255.309Z" fill="#4E4774"/>
<path d="M440.882 204.284H355.368C353.71 204.284 352.373 202.947 352.373 201.289V192.848C352.373 191.191 353.71 189.853 355.368 189.853H440.882C442.539 189.853 443.877 191.191 443.877 192.848V201.289C443.877 202.947 442.526 204.284 440.882 204.284Z" fill="#E5E4F0"/>
<path d="M431.159 182.638V189.853H365.091V182.638C365.091 181.231 366.233 180.089 367.64 180.089H428.61C430.017 180.089 431.159 181.217 431.159 182.638Z" fill="#4E4774"/>
<path d="M425.392 177.888H370.844V180.089H425.392V177.888Z" fill="#4E4774"/>
<path d="M427.523 155.865H368.712C367.737 155.865 366.943 156.659 366.943 157.634V176.105C366.943 177.08 367.737 177.874 368.712 177.874H427.523C428.498 177.874 429.292 177.08 429.292 176.105V157.634C429.292 156.659 428.498 155.865 427.523 155.865Z" fill="#E5E4F0"/>
<path d="M378.841 189.853H369.884L374.481 180.089H383.423L378.841 189.853Z" fill="#DC6741"/>
<path d="M396.518 189.853H387.575L392.158 180.089H401.115L396.518 189.853Z" fill="#DC6741"/>
<path d="M414.207 189.853H405.25L409.847 180.089H418.79L414.207 189.853Z" fill="#DC6741"/>
<path d="M431.16 182.638V189.853H422.941L427.538 180.089H428.611C430.018 180.089 431.16 181.217 431.16 182.638Z" fill="#DC6741"/>
<path d="M378.213 147.298H376.555C374.647 147.298 373.101 148.845 373.101 150.753V155.865H381.667V150.753C381.667 148.845 380.121 147.298 378.213 147.298ZM377.391 152.02C376.388 152.02 375.58 151.213 375.58 150.21C375.58 149.207 376.388 148.399 377.391 148.399C378.394 148.399 379.202 149.207 379.202 150.21C379.202 151.199 378.394 152.02 377.391 152.02Z" fill="#9290C2"/>
<path d="M420.711 147.298H419.053C417.145 147.298 415.599 148.845 415.599 150.753V155.865H424.165V150.753C424.165 148.845 422.619 147.298 420.711 147.298ZM419.889 152.02C418.886 152.02 418.078 151.213 418.078 150.21C418.078 149.207 418.886 148.399 419.889 148.399C420.892 148.399 421.7 149.207 421.7 150.21C421.7 151.199 420.878 152.02 419.889 152.02Z" fill="#9290C2"/>
<path d="M399.455 147.298H397.797C395.889 147.298 394.343 148.845 394.343 150.753V155.865H402.909V150.753C402.923 148.845 401.377 147.298 399.455 147.298ZM398.633 152.02C397.63 152.02 396.822 151.213 396.822 150.21C396.822 149.207 397.63 148.399 398.633 148.399C399.636 148.399 400.444 149.207 400.444 150.21C400.458 151.199 399.636 152.02 398.633 152.02Z" fill="#9290C2"/>
<path d="M398.117 93.3351C397.115 93.3351 396.307 92.5272 396.307 91.5243V68.9861C396.307 67.9832 397.115 67.1753 398.117 67.1753C399.12 67.1753 399.928 67.9832 399.928 68.9861V91.5243C399.928 92.5272 399.12 93.3351 398.117 93.3351Z" fill="#E5E4F0"/>
<path d="M377.39 150.697C377.335 150.697 377.279 150.683 377.209 150.669C376.945 150.572 376.819 150.279 376.917 150.028L395.192 101.456C395.29 101.191 395.582 101.066 395.833 101.163C396.098 101.261 396.223 101.553 396.126 101.804L377.85 150.377C377.78 150.572 377.585 150.697 377.39 150.697Z" fill="#4E4774"/>
<path d="M419.89 150.697C419.695 150.697 419.5 150.572 419.416 150.377L400.611 101.512C400.514 101.261 400.639 100.969 400.904 100.871C401.168 100.774 401.447 100.899 401.544 101.164L420.349 150.029C420.447 150.279 420.321 150.572 420.057 150.669C420.001 150.683 419.945 150.697 419.89 150.697Z" fill="#4E4774"/>
<path d="M398.634 150.697C398.355 150.697 398.133 150.474 398.133 150.21L397.617 101.637C397.617 101.359 397.84 101.136 398.119 101.136C398.397 101.136 398.62 101.359 398.62 101.623L399.136 150.196C399.136 150.474 398.913 150.697 398.634 150.697Z" fill="#4E4774"/>
<path d="M274.27 353.108H29.5968C15.0125 353.108 3.2002 341.296 3.2002 326.712C3.2002 312.128 15.0125 300.315 29.5968 300.315H274.27C288.855 300.315 300.667 312.128 300.667 326.712C300.667 341.296 288.841 353.108 274.27 353.108Z" fill="#69628B"/>
<path d="M29.5968 350.114C16.698 350.114 6.20898 339.625 6.20898 326.726C6.20898 313.827 16.698 303.338 29.5968 303.338H274.27C287.169 303.338 297.658 313.827 297.658 326.726C297.658 339.625 287.169 350.114 274.27 350.114H29.5968Z" fill="#4E4774"/>
<path d="M42.2207 341.774C49.8092 334.185 49.8092 321.882 42.2207 314.293C34.6322 306.705 22.3288 306.705 14.7402 314.293C7.15171 321.882 7.15172 334.185 14.7402 341.774C22.3288 349.362 34.6322 349.362 42.2207 341.774Z" fill="#69628B"/>
<path d="M28.4826 337.702C33.8216 337.702 38.1497 333.374 38.1497 328.035C38.1497 322.696 33.8216 318.368 28.4826 318.368C23.1436 318.368 18.8154 322.696 18.8154 328.035C18.8154 333.374 23.1436 337.702 28.4826 337.702Z" fill="#E5E4F0"/>
<path d="M83.539 345.996C93.4542 341.889 98.1626 330.522 94.0555 320.606C89.9485 310.691 78.5811 305.983 68.6659 310.09C58.7507 314.197 54.0424 325.564 58.1495 335.479C62.2565 345.395 73.6239 350.103 83.539 345.996Z" fill="#69628B"/>
<path d="M76.0929 337.702C81.432 337.702 85.7601 333.374 85.7601 328.035C85.7601 322.696 81.432 318.368 76.0929 318.368C70.7539 318.368 66.4258 322.696 66.4258 328.035C66.4258 333.374 70.7539 337.702 76.0929 337.702Z" fill="#E5E4F0"/>
<path d="M131.152 345.995C141.068 341.888 145.776 330.521 141.669 320.606C137.562 310.691 126.194 305.982 116.279 310.089C106.364 314.196 101.656 325.564 105.763 335.479C109.87 345.394 121.237 350.103 131.152 345.995Z" fill="#69628B"/>
<path d="M123.705 337.702C129.044 337.702 133.372 333.374 133.372 328.035C133.372 322.696 129.044 318.368 123.705 318.368C118.366 318.368 114.038 322.696 114.038 328.035C114.038 333.374 118.366 337.702 123.705 337.702Z" fill="#E5E4F0"/>
<path d="M190.223 332.533C192.689 322.089 186.222 311.623 175.777 309.157C165.333 306.691 154.867 313.158 152.401 323.602C149.935 334.047 156.402 344.513 166.847 346.979C177.291 349.445 187.757 342.978 190.223 332.533Z" fill="#69628B"/>
<path d="M171.318 337.702C176.657 337.702 180.985 333.374 180.985 328.035C180.985 322.696 176.657 318.368 171.318 318.368C165.979 318.368 161.65 322.696 161.65 328.035C161.65 333.374 165.979 337.702 171.318 337.702Z" fill="#E5E4F0"/>
<path d="M232.677 341.769C240.265 334.181 240.265 321.877 232.677 314.289C225.088 306.7 212.785 306.7 205.196 314.289C197.608 321.877 197.608 334.181 205.196 341.769C212.785 349.358 225.088 349.358 232.677 341.769Z" fill="#69628B"/>
<path d="M218.943 337.702C224.282 337.702 228.61 333.374 228.61 328.035C228.61 322.696 224.282 318.368 218.943 318.368C213.604 318.368 209.275 322.696 209.275 328.035C209.275 333.374 213.604 337.702 218.943 337.702Z" fill="#E5E4F0"/>
<path d="M274.002 345.989C283.917 341.882 288.626 330.515 284.518 320.6C280.411 310.685 269.044 305.976 259.129 310.083C249.214 314.19 244.505 325.558 248.612 335.473C252.719 345.388 264.087 350.096 274.002 345.989Z" fill="#69628B"/>
<path d="M266.553 337.702C271.892 337.702 276.22 333.374 276.22 328.035C276.22 322.696 271.892 318.368 266.553 318.368C261.214 318.368 256.886 322.696 256.886 328.035C256.886 333.374 261.214 337.702 266.553 337.702Z" fill="#E5E4F0"/>
<path d="M246.62 295.481H56.5364C55.5335 295.481 54.7256 296.289 54.7256 297.292V300.315H249.531V298.393C249.531 296.791 248.222 295.481 246.62 295.481Z" fill="#9290C2"/>
<path d="M200.707 287.89H103.548V295.496H200.707V287.89Z" fill="#4E4774"/>
<path d="M226.951 246.547H71.9978C68.4179 246.547 65.5205 249.444 65.5205 253.024V282.151C65.5205 285.313 68.0836 287.89 71.2595 287.89H241.382C244.544 287.89 247.121 285.327 247.121 282.151V266.717C247.121 255.573 238.081 246.547 226.951 246.547Z" fill="#9290C2"/>
<path d="M233.568 234.596V287.89H164.937V221.056C164.937 214.565 168.503 208.909 173.796 205.942C176.303 204.535 179.187 203.728 182.265 203.728H202.7C211.615 203.728 219.666 207.502 225.294 213.562C230.42 219.064 233.568 226.475 233.568 234.596Z" fill="#E5E4F0"/>
<path d="M227.104 234.595V248.539H184.033C181.93 248.539 180.217 246.825 180.217 244.722V217.378C180.217 215.275 181.93 213.562 184.033 213.562H210.82C216.949 213.562 222.493 217.239 224.805 222.908C226.296 226.516 227.104 230.458 227.104 234.595Z" fill="#9290C2"/>
<path d="M225.099 234.595V246.533H184.034C183.032 246.533 182.224 245.725 182.224 244.722V217.378C182.224 216.375 183.045 215.567 184.034 215.567H210.821C212.883 215.567 214.847 216.041 216.602 216.891C219.067 218.089 221.115 220.039 222.424 222.532C222.62 222.908 222.801 223.284 222.968 223.674C224.389 227.129 225.099 230.806 225.099 234.595Z" fill="#4E4774"/>
<path d="M128.12 258.429H64.8661C62.721 258.429 60.9658 260.17 60.9658 262.329V284.003C60.9658 286.149 62.707 287.904 64.8661 287.904H141.507C143.652 287.904 145.407 286.163 145.407 284.003V275.715C145.393 266.16 137.662 258.429 128.12 258.429Z" fill="#E5E4F0"/>
<path d="M355.368 204.284L350.716 213.561L360.077 208.923L373.101 225.736L374.591 224.245L365.091 207.808H385.498L386.529 215.01L389.663 212.113V207.056L408.371 206.541L405.25 220.707L410.488 208.324H427.05V213.561H429.293V206.805L462 208.575V206.29L437.72 204.284H355.368Z" fill="#4E4774"/>
<path d="M457.88 209.056L330.931 204.279L330.814 207.37L457.764 212.146L457.88 209.056Z" fill="#4E4774"/>
<path d="M461.929 351.856L0.828125 353.283L0.83254 354.71L461.933 353.283L461.929 351.856Z" fill="#E4E4E4"/>
<path opacity="0.1" d="M233.568 263.025V287.89H164.937V221.056C164.937 214.564 168.503 208.909 173.796 205.942V232.826C173.796 249.514 187.321 263.025 203.995 263.025H233.568Z" fill="#4E4774"/>
<path d="M208.424 215.554L193.645 246.533H189.926L204.705 215.554H208.424Z" fill="#585382"/>
<path d="M222.423 222.518L210.973 246.533H202.462L216.614 216.877C219.066 218.075 221.114 220.025 222.423 222.518Z" fill="#585382"/>
<path d="M114.831 276.328H87.1805C85.6204 276.328 84.3389 275.061 84.3389 273.487V266.647C84.3389 265.087 85.6065 263.806 87.1805 263.806H114.831C116.391 263.806 117.672 265.073 117.672 266.647V273.487C117.672 275.047 116.405 276.328 114.831 276.328ZM87.1805 264.377C85.9408 264.377 84.9239 265.394 84.9239 266.633V273.473C84.9239 274.713 85.9408 275.729 87.1805 275.729H114.831C116.071 275.729 117.087 274.713 117.087 273.473V266.633C117.087 265.394 116.071 264.377 114.831 264.377H87.1805Z" fill="#9290C2"/>
<path opacity="0.1" d="M184.688 151.853L171.928 197.988L169.268 197.333L180.523 158.957C181.108 156.952 180.049 154.834 178.099 154.096L179.144 150.335L184.688 151.853Z" fill="#4E4774"/>
<path opacity="0.1" d="M316.95 44.4423L269.562 62.4115L264.645 49.443L268.322 48.05L269.325 50.3763C270.801 53.8169 274.688 55.5163 278.226 54.2766L315.669 41.0574L316.95 44.4423Z" fill="#4E4774"/>
<path d="M395.458 317.046C395.527 316.781 395.597 316.516 395.653 316.238C396.53 311.933 395.43 307.629 392.895 304.481C392.895 304.467 392.881 304.467 392.881 304.453C391.697 302.991 390.206 301.779 388.451 300.929C388.214 300.818 387.978 300.706 387.741 300.609C387.462 300.497 387.184 300.386 386.905 300.302C386.613 300.205 386.334 300.121 386.041 300.051C385.791 299.982 385.526 299.926 385.275 299.884C381.18 299.104 377.015 300.386 373.909 303.13C373.895 303.13 373.895 303.144 373.881 303.158C372.432 304.439 371.22 306.027 370.357 307.88C370.245 308.131 370.134 308.381 370.036 308.632C369.925 308.925 369.813 309.217 369.716 309.524C369.618 309.83 369.521 310.123 369.451 310.429C369.382 310.694 369.312 310.958 369.256 311.237C368.379 315.541 369.479 319.845 372.014 322.994C372.014 323.007 372.028 323.007 372.028 323.021C373.212 324.484 374.703 325.696 376.458 326.546C376.695 326.657 376.931 326.768 377.168 326.866C377.447 326.977 377.725 327.089 378.004 327.172C378.297 327.27 378.575 327.354 378.868 327.423C379.118 327.493 379.383 327.549 379.634 327.59C383.729 328.37 387.894 327.089 391 324.345C391.014 324.345 391.014 324.331 391.028 324.331C392.477 323.049 393.689 321.461 394.552 319.609C394.664 319.358 394.775 319.107 394.873 318.856C394.984 318.564 395.096 318.271 395.193 317.965C395.291 317.658 395.374 317.352 395.458 317.046ZM391.585 304.788L387.713 309.147C387.532 308.911 387.323 308.688 387.1 308.479C386.877 308.27 386.64 308.075 386.404 307.908L390.262 303.548C390.736 303.924 391.181 304.342 391.585 304.788ZM374.132 304.495L378.199 308.395C377.962 308.604 377.739 308.813 377.53 309.05C377.321 309.287 377.126 309.538 376.959 309.788L372.892 305.888C373.282 305.4 373.686 304.927 374.132 304.495ZM373.31 322.701L377.168 318.341C377.349 318.578 377.558 318.801 377.781 319.01C378.004 319.219 378.241 319.414 378.478 319.581L374.619 323.941C374.146 323.565 373.714 323.147 373.31 322.701ZM379.871 326.406C379.634 326.364 379.397 326.309 379.174 326.253C378.909 326.183 378.645 326.114 378.394 326.03C378.129 325.947 377.879 325.849 377.628 325.752C377.405 325.668 377.182 325.571 376.973 325.459C376.36 325.167 375.789 324.818 375.246 324.442L380.929 318.035L378.492 315.708L372.808 322.116C370.552 319.246 369.577 315.36 370.371 311.474C370.426 311.223 370.482 310.986 370.538 310.735C370.607 310.457 370.691 310.192 370.775 309.914C370.872 309.635 370.956 309.37 371.067 309.106C371.165 308.869 371.262 308.646 371.36 308.409C371.666 307.768 372.014 307.156 372.39 306.584L378.366 312.31L380.679 309.691L374.703 303.966C377.53 301.528 381.291 300.386 384.997 301.096C385.234 301.138 385.456 301.194 385.693 301.249C385.958 301.319 386.223 301.389 386.473 301.472C386.738 301.556 386.989 301.653 387.239 301.751C387.462 301.834 387.685 301.932 387.894 302.043C388.507 302.336 389.078 302.684 389.621 303.06L383.938 309.468L386.376 311.808L392.059 305.4C394.316 308.27 395.291 312.156 394.497 316.043C394.441 316.293 394.385 316.53 394.33 316.781C394.26 317.06 394.176 317.324 394.093 317.603C393.995 317.881 393.912 318.146 393.8 318.411C393.703 318.648 393.605 318.87 393.508 319.107C393.201 319.748 392.853 320.361 392.477 320.932L386.501 315.207L384.189 317.826L390.165 323.551C387.323 325.974 383.562 327.117 379.871 326.406ZM391.989 321.587C391.613 322.088 391.195 322.548 390.75 322.98L386.682 319.079C386.919 318.87 387.142 318.661 387.351 318.425C387.56 318.188 387.755 317.937 387.922 317.686L391.989 321.587Z" fill="#BEBCDA"/>
<path d="M385.791 309.97C383.841 308.103 380.776 308.298 378.924 310.374C377.085 312.449 377.155 315.653 379.105 317.519C381.055 319.386 384.119 319.191 385.958 317.116C387.811 315.026 387.727 311.836 385.791 309.97ZM380.484 315.959C379.342 314.859 379.3 312.978 380.386 311.753C381.473 310.527 383.284 310.415 384.426 311.516C385.568 312.602 385.61 314.497 384.523 315.723C383.423 316.948 381.626 317.06 380.484 315.959Z" fill="#D8D7E9"/>
<path d="M385.414 311.14C385.233 311.348 384.927 311.362 384.732 311.181C384.537 311 384.523 310.68 384.718 310.471C384.899 310.262 385.205 310.248 385.4 310.429C385.581 310.596 385.595 310.931 385.414 311.14Z" fill="#2C2A42"/>
<path d="M380.038 310.736C380.233 310.917 380.247 311.237 380.052 311.446C379.871 311.655 379.564 311.669 379.369 311.488C379.174 311.307 379.16 310.986 379.355 310.778C379.522 310.569 379.843 310.541 380.038 310.736Z" fill="#2C2A42"/>
<path d="M379.481 316.349C379.662 316.14 379.968 316.126 380.163 316.308C380.358 316.489 380.372 316.809 380.177 317.018C379.996 317.227 379.69 317.241 379.495 317.06C379.3 316.879 379.3 316.558 379.481 316.349Z" fill="#2C2A42"/>
<path d="M384.858 316.753C384.663 316.572 384.649 316.252 384.844 316.043C385.025 315.834 385.331 315.82 385.526 316.001C385.721 316.182 385.735 316.503 385.54 316.712C385.359 316.92 385.053 316.934 384.858 316.753Z" fill="#2C2A42"/>
<path d="M431.689 313.918L371.861 346.457L372.427 347.497L432.255 314.958L431.689 313.918Z" fill="#424B66"/>
<path d="M428.208 294.995H371.068V352.134H428.208V294.995Z" fill="#343A4C"/>
<path d="M402.438 343.066L407.508 326.1L421.229 323.425L424.279 314.19H428.207V335.781L413.205 346.075L402.438 344.96V343.066Z" fill="#686F85"/>
<path d="M382.448 352.134L388.215 340.252L406.087 343.776L414.319 336.728L415.963 329.359L430.324 323.955V352.134H382.448Z" fill="#424B66"/>
<path d="M384.691 347.496H376.166L367.989 340.015L371.068 352.134H382.448L384.691 347.496Z" fill="#343A4C"/>
<path d="M393.661 335.488L399.637 347.44H413.79L409.848 330.125L403.134 332.716L391.182 306.905L387.101 308.381L393.661 335.488Z" fill="#343A4C"/>
<path d="M424.961 312.56V314.427H429.042V312.56L431.675 312.003V310.805L427.162 311.07L424.961 312.56Z" fill="#343A4C"/>
<path d="M378.896 348.457L398.941 347.092L397.2 334.053L372.461 345.114L374.745 348.457H378.896Z" fill="#686F85"/>
<path d="M383.283 309.788L389.454 314.427L380.609 325.905L374.006 321.182L371.457 317.728L377.405 313.744L383.283 309.788Z" fill="#343A4C"/>
<path d="M395.974 308.953L390.221 313.744L396.907 319.651L403.147 314.19L395.974 308.953Z" fill="#424B66"/>
<path d="M403.691 313.466L396.907 322.59L398.732 327.66L405.613 326.601L406.379 318.703L407.591 314.427L403.691 313.466Z" fill="#343A4C"/>
<path d="M378.993 325.25L398.035 296.764L404.916 301.514L390.708 313.925L404.345 323.565L403.871 326.1L399.261 325.069L393.703 330.725H385.707L378.993 325.25Z" fill="#686F85"/>
<path d="M371.068 327.66L369.368 335.279L371.527 344.835L383.855 344.375L390.708 338.594L371.068 327.66Z" fill="#343A4C"/>
<path d="M385.707 328.078L388.215 326.1L374.16 313.466L370.051 314.427L366.735 306.905H367.613L371.067 312.616L374.954 311.488L389.636 324.985V327.66L394.483 330.125L392.951 334.054L385.707 328.078Z" fill="#343A4C"/>
<path d="M368.756 292.933L420.546 325.905L421.117 324.971L369.369 292L368.756 292.933Z" fill="#343A4C"/>
<path d="M377.029 318.397L391.056 303.408L384.049 298.129L382.447 307.448L375.343 303.408L372.46 306.905L376.012 308.952L371.457 317.728L377.029 318.397Z" fill="#686F85"/>
<path d="M407.674 299.592L412.048 313.466L417.856 312.003L417.202 309.649L413.092 310.164L409.638 299.592L415.642 297.252L413.789 294.312L402.979 296.764L407.674 299.592Z" fill="#686F85"/>
<path d="M421.117 294.312V305.303L404.039 314.092L411.937 319.121L428.318 308.757L427.009 294.312H421.117Z" fill="#343A4C"/>
<path d="M427.064 294.8H429.363L428.931 308.395L427.9 308.632L427.064 294.8Z" fill="#686F85"/>
<path d="M387.504 294.995L389.134 301.96L398.188 303.478L398.94 301.249L392.936 299.55L394.483 294.312L389.454 294.8L387.504 292.474V294.995Z" fill="#686F85"/>
<path d="M412.132 328.788C412.201 328.524 412.271 328.259 412.327 327.98C413.204 323.676 412.104 319.372 409.569 316.224C409.569 316.21 409.555 316.21 409.555 316.196C408.371 314.733 406.88 313.521 405.125 312.672C404.888 312.56 404.651 312.449 404.415 312.351C404.136 312.24 403.857 312.128 403.579 312.045C403.286 311.947 403.008 311.864 402.715 311.794C402.465 311.725 402.2 311.669 401.949 311.627C397.854 310.847 393.689 312.128 390.583 314.873C390.569 314.873 390.569 314.887 390.555 314.9C389.106 316.182 387.894 317.77 387.031 319.623C386.919 319.873 386.808 320.124 386.71 320.375C386.599 320.667 386.487 320.96 386.39 321.266C386.292 321.573 386.195 321.865 386.125 322.172C386.055 322.436 385.986 322.701 385.93 322.98C385.052 327.284 386.153 331.588 388.688 334.736C388.688 334.75 388.702 334.75 388.702 334.764C389.886 336.227 391.377 337.439 393.132 338.288C393.368 338.4 393.605 338.511 393.842 338.609C394.121 338.72 394.399 338.832 394.678 338.915C394.956 339.013 395.249 339.096 395.541 339.166C395.792 339.235 396.057 339.291 396.308 339.333C400.403 340.113 404.568 338.832 407.674 336.087C407.688 336.087 407.688 336.073 407.702 336.073C409.151 334.792 410.363 333.204 411.226 331.351C411.338 331.101 411.449 330.85 411.547 330.599C411.658 330.307 411.769 330.014 411.867 329.708C411.965 329.387 412.048 329.081 412.132 328.788ZM408.245 316.53L404.373 320.89C404.192 320.653 403.983 320.431 403.76 320.222C403.537 320.013 403.3 319.818 403.064 319.65L406.922 315.29C407.41 315.667 407.855 316.071 408.245 316.53ZM390.805 316.238L394.873 320.138C394.636 320.347 394.413 320.556 394.204 320.793C393.995 321.029 393.8 321.28 393.633 321.531L389.566 317.631C389.956 317.129 390.36 316.67 390.805 316.238ZM389.984 334.43L393.842 330.07C394.023 330.307 394.232 330.529 394.455 330.738C394.678 330.947 394.915 331.142 395.151 331.31L391.293 335.669C390.819 335.293 390.388 334.876 389.984 334.43ZM396.544 338.135C396.308 338.093 396.071 338.038 395.848 337.982C395.583 337.912 395.319 337.843 395.068 337.759C394.803 337.675 394.553 337.578 394.302 337.48C394.079 337.397 393.856 337.299 393.647 337.188C393.034 336.895 392.463 336.547 391.92 336.171L397.603 329.763L395.165 327.423L389.482 333.831C387.226 330.961 386.25 327.075 387.044 323.189C387.1 322.938 387.156 322.701 387.212 322.45C387.281 322.172 387.365 321.907 387.448 321.628C387.546 321.35 387.629 321.085 387.741 320.821C387.838 320.584 387.936 320.361 388.033 320.124C388.34 319.483 388.688 318.87 389.064 318.299L395.04 324.024L397.352 321.406L391.377 315.68C394.204 313.243 397.965 312.101 401.671 312.811C401.907 312.853 402.13 312.909 402.367 312.964C402.632 313.034 402.896 313.104 403.147 313.187C403.412 313.271 403.662 313.368 403.913 313.466C404.136 313.549 404.359 313.647 404.568 313.758C405.181 314.051 405.752 314.399 406.295 314.775L400.612 321.183L403.05 323.523L408.733 317.115C410.989 319.985 411.965 323.871 411.171 327.757C411.115 328.008 411.059 328.245 410.989 328.496C410.92 328.774 410.836 329.039 410.753 329.318C410.655 329.596 410.572 329.861 410.46 330.125C410.363 330.362 410.265 330.585 410.168 330.822C409.861 331.463 409.513 332.076 409.137 332.647L403.161 326.922L400.849 329.54L406.824 335.266C403.997 337.717 400.236 338.845 396.544 338.135ZM408.663 333.315C408.287 333.817 407.869 334.277 407.423 334.708L403.356 330.808C403.593 330.599 403.816 330.39 404.025 330.153C404.234 329.917 404.429 329.666 404.596 329.415L408.663 333.315Z" fill="#BEBCDA"/>
<path d="M402.465 321.698C400.515 319.831 397.45 320.026 395.597 322.102C393.759 324.177 393.828 327.381 395.779 329.248C397.729 331.114 400.793 330.919 402.632 328.844C404.485 326.754 404.401 323.564 402.465 321.698ZM397.158 327.702C396.015 326.601 395.974 324.721 397.06 323.495C398.147 322.269 399.957 322.158 401.1 323.258C402.242 324.358 402.284 326.239 401.197 327.465C400.097 328.677 398.3 328.788 397.158 327.702Z" fill="#D8D7E9"/>
<path d="M402.074 322.868C401.893 323.077 401.587 323.091 401.392 322.91C401.197 322.729 401.183 322.409 401.378 322.2C401.559 321.991 401.865 321.977 402.06 322.158C402.255 322.339 402.269 322.659 402.074 322.868Z" fill="#2C2A42"/>
<path d="M396.712 322.464C396.907 322.645 396.921 322.966 396.726 323.175C396.545 323.384 396.238 323.398 396.043 323.216C395.848 323.035 395.834 322.715 396.029 322.506C396.196 322.297 396.503 322.283 396.712 322.464Z" fill="#2C2A42"/>
<path d="M396.155 328.092C396.336 327.883 396.642 327.869 396.837 328.05C397.032 328.231 397.046 328.551 396.851 328.76C396.67 328.969 396.364 328.983 396.169 328.802C395.974 328.621 395.974 328.301 396.155 328.092Z" fill="#2C2A42"/>
<path d="M401.531 328.482C401.336 328.301 401.322 327.98 401.517 327.771C401.698 327.562 402.005 327.549 402.2 327.73C402.395 327.911 402.409 328.231 402.214 328.44C402.033 328.649 401.726 328.677 401.531 328.482Z" fill="#2C2A42"/>
<path d="M398.523 316.14L424.098 293.268L424.585 293.797L397.381 322.59L398.523 316.14Z" fill="#424B66"/>
<path d="M371.068 329.735L367.989 326.517L369.076 316.14L394.483 333.106V337.452L372.893 340.015L371.416 329.303L371.068 329.735Z" fill="#424B66"/>
<path d="M398.94 329.234L405.083 335.447L413.149 328.078L423.289 325.097L425.88 312.992L430.324 310.596L431.369 306.905L412.731 318.285L406.379 316.14L398.94 329.234Z" fill="#424B66"/>
<path d="M375.775 305.044L375.129 306.387L423.522 329.665L424.168 328.322L375.775 305.044Z" fill="#686F85"/>
</svg>
