<svg width="301" height="187" viewBox="0 0 301 187" fill="none" xmlns="http://www.w3.org/2000/svg">
<path d="M14.7051 74.3403H17.9351V53.4303C17.9351 47.8103 14.7451 44.5903 9.19507 44.5903V47.8203C13.0051 47.8203 14.7051 49.5503 14.7051 53.4303V74.3403Z" fill="#69628B"/>
<path d="M12.735 67.4902H19.895V117.14H12.735V67.4902Z" fill="#4E4774"/>
<path d="M228.097 54.3807L267.839 66.7056L266.776 70.1344L227.034 57.8095L228.097 54.3807Z" fill="#847B6A"/>
<path d="M266.941 24.6962L291.429 84.9678L286.779 86.8573L262.29 26.5857L266.941 24.6962Z" fill="#7EC2FA"/>
<path d="M290.252 85.3933L296.141 99.8931L293.815 100.838L287.926 86.3379L290.252 85.3933Z" fill="#CBCBCB"/>
<path d="M294.165 121.88L297.295 99.2104L273.975 86.6304L271.935 90.4204L292.625 101.58L289.895 121.29L294.165 121.88Z" fill="#847B6A"/>
<path d="M290.675 103.58C288.915 101.22 289.405 97.8804 291.775 96.1204C294.145 94.3604 297.485 94.8504 299.245 97.2104C301.005 99.5704 300.515 102.91 298.145 104.67C295.785 106.43 292.435 105.94 290.675 103.58Z" fill="#7EC2FA"/>
<path d="M188.778 40.3931L200.527 44.0352L198.401 50.8935L186.652 47.2514L188.778 40.3931Z" fill="#59A9EB"/>
<path d="M200.517 44.0315L230.52 53.332L228.394 60.1904L198.391 50.8899L200.517 44.0315Z" fill="#7EC2FA"/>
<path d="M175.17 7.76514L178.179 9.72314L151.607 50.5602L148.598 48.6022L175.17 7.76514Z" fill="#847B6A"/>
<path d="M149.047 44.6553L155.065 48.5713L125.963 93.2976L119.945 89.3817L149.047 44.6553Z" fill="#418FDC"/>
<path d="M154.265 117.22L129.875 100.66L176.685 15.3604L197.395 26.9304L154.265 117.22Z" fill="#C8C8C8"/>
<path d="M154.265 117.221L196.015 29.8307L180.285 8.76074L175.315 18.1107L186.035 37.9207L148.645 113.401L154.265 117.221Z" fill="#C8C8C8"/>
<path fill-rule="evenodd" clip-rule="evenodd" d="M175.795 93.8004L106.845 85.8704C106.845 85.8704 100.385 65.0704 96.0649 52.6504C94.4549 48.0204 100.045 48.0604 100.045 46.7804C100.045 44.3804 100.045 40.9204 95.585 40.9204C73.625 40.9704 54.1149 40.9204 32.1549 40.9204C28.6249 40.9204 28.8549 43.7804 28.8549 46.8404C28.8549 48.9704 29.8949 48.3404 32.0349 48.2004C34.2649 48.0604 32.365 48.1704 35.085 48.1704C35.085 51.6304 34.0349 88.2504 34.0349 88.2504H1.57495C1.57495 88.2504 1.57495 108.03 1.57495 125.53C4.76495 125.53 5.78491 125.53 5.78491 125.53V147.17L175.795 148.27V93.8004Z" fill="#7EC2FA"/>
<path opacity="0.2" fill-rule="evenodd" clip-rule="evenodd" d="M132.865 126.111L132.245 123.271L126.165 122.001L118.175 123.561L140.865 92.7506L159.385 92.7006L159.005 91.8706L169.395 93.0606L169.715 93.7606L146.185 126.111H132.865Z" fill="#EAF7F7"/>
<path opacity="0.2" fill-rule="evenodd" clip-rule="evenodd" d="M29.4951 126.38L66.5551 73.3203L80.415 73.6403L66.3651 96.5803L42.8351 128.93L29.4951 126.38Z" fill="#EAF7F7"/>
<path fill-rule="evenodd" clip-rule="evenodd" d="M106.185 93.3904L103.535 82.4004H105.995C106.535 84.1104 106.845 85.1304 106.845 85.1304L175.795 93.4304V121.8L170.225 121.36L170.185 98.2204L106.185 93.3904Z" fill="#B7DBEF"/>
<path opacity="0.3" d="M5.01483 88.3105L4.9848 117.221H28.3648V88.3105H33.1248V121.011H175.675V127.451L5.78479 141.241V125.531H1.57483V88.3105H5.01483Z" fill="#1C4891"/>
<path d="M201.395 155.131C201.395 172.541 187.285 186.651 169.875 186.651H107.825H103.535H32.095C14.685 186.651 0.575012 172.531 0.575012 155.121C0.575012 137.711 14.685 123.601 32.095 123.601H94.135H98.415H169.865C187.285 123.601 201.395 137.721 201.395 155.131Z" fill="#4E4774"/>
<path d="M188.115 155.13C188.115 145.07 179.935 136.88 169.875 136.88H32.0952C22.0352 136.88 13.8452 145.06 13.8452 155.12C13.8452 165.18 22.0252 173.37 32.0952 173.37H169.875C179.935 173.37 188.115 165.18 188.115 155.13Z" fill="#1C4891"/>
<path d="M169.875 170.941C178.595 170.941 185.695 163.851 185.695 155.131C185.695 146.411 178.605 139.311 169.875 139.311H32.0948C23.3748 139.311 16.2748 146.401 16.2748 155.121C16.2748 163.841 23.3648 170.941 32.0948 170.941H169.875Z" fill="#7EC2FA"/>
<path opacity="0.4" d="M15.5651 155.121C15.5651 146.001 22.9851 138.591 32.0951 138.591H169.875C178.985 138.591 186.405 146.011 186.405 155.121H190.975C190.975 143.971 181.905 134.911 170.765 134.911H31.2051C20.0551 134.911 10.9951 143.981 10.9951 155.121L12.1451 155.131H15.5651V155.121Z" fill="#6A6677"/>
<path opacity="0.6" d="M186.405 155.811C186.405 164.921 178.985 172.341 169.875 172.341H32.0951C22.9751 172.341 15.5651 164.921 15.5651 155.811H10.9951C10.9951 166.961 20.0651 176.021 31.2051 176.021H170.765C181.915 176.021 190.975 166.951 190.975 155.811H186.405Z" fill="#B1B1B1"/>
<g opacity="0.3">
<path opacity="0.3" d="M31.505 145.011C32.585 145.011 33.665 145.161 34.715 145.461C34.745 145.461 34.775 145.461 34.805 145.461H167.245C168.295 145.171 169.375 145.021 170.465 145.021C177.035 145.021 182.375 150.371 182.375 156.941C182.375 163.511 177.035 168.861 170.465 168.861C169.045 168.861 167.655 168.611 166.335 168.121H35.635C34.315 168.611 32.925 168.861 31.505 168.861C24.935 168.861 19.585 163.511 19.585 156.941C19.585 150.361 24.935 145.011 31.505 145.011ZM31.505 166.031C32.685 166.031 33.835 165.801 34.925 165.361L35.095 165.291H166.865L167.035 165.361C168.125 165.801 169.275 166.031 170.465 166.031C175.485 166.031 179.555 161.951 179.555 156.931C179.555 151.911 175.475 147.831 170.465 147.831C169.565 147.831 168.665 147.971 167.795 148.231L167.665 148.271H152.495V163.331H146.455V148.271H140.335V163.331H134.295V148.271H74.035V163.331H67.995V148.271H61.035V163.331H54.995V148.271H49.965V163.331H43.925V148.271H34.815C34.725 148.271 34.645 148.271 34.555 148.281L34.385 148.291L34.215 148.241C33.335 147.961 32.425 147.831 31.515 147.831C26.495 147.831 22.415 151.911 22.415 156.931C22.405 161.951 26.485 166.031 31.505 166.031Z" fill="#A56831"/>
</g>
<path d="M31.505 145.3C26.485 145.3 22.405 149.38 22.405 154.4C22.405 159.42 26.485 163.5 31.505 163.5C32.685 163.5 33.835 163.28 34.925 162.83L35.095 162.76H166.865L167.035 162.83C168.125 163.27 169.275 163.5 170.465 163.5C175.485 163.5 179.555 159.42 179.555 154.4C179.555 149.38 175.475 145.3 170.465 145.3C169.565 145.3 168.665 145.44 167.795 145.7L167.665 145.74H34.805C34.715 145.74 34.635 145.75 34.545 145.75L34.375 145.76L34.205 145.71C33.325 145.44 32.415 145.3 31.505 145.3ZM31.505 142.48C32.585 142.48 33.665 142.63 34.715 142.93C34.745 142.93 34.775 142.93 34.805 142.93H167.245C168.295 142.64 169.375 142.49 170.465 142.49C177.035 142.49 182.375 147.84 182.375 154.41C182.375 160.98 177.035 166.33 170.465 166.33C169.045 166.33 167.655 166.08 166.335 165.59H35.635C34.315 166.08 32.925 166.33 31.505 166.33C24.935 166.33 19.585 160.98 19.585 154.41C19.585 147.83 24.935 142.48 31.505 142.48Z" fill="#1C4891"/>
<path d="M163.685 154.4C163.685 150.81 166.595 147.9 170.185 147.9C173.775 147.9 176.685 150.81 176.685 154.4C176.685 157.99 173.775 160.9 170.185 160.9C166.595 160.9 163.685 157.99 163.685 154.4Z" fill="#B7DBEF"/>
<path d="M25.3149 154.4C25.3149 150.81 28.2249 147.9 31.8149 147.9C35.4049 147.9 38.3149 150.81 38.3149 154.4C38.3149 157.99 35.4049 160.9 31.8149 160.9C28.2249 160.9 25.3149 157.99 25.3149 154.4Z" fill="#B7DBEF"/>
<path d="M152.805 147.711C154.555 147.711 155.965 146.291 155.965 144.541C155.965 142.791 154.545 141.371 152.805 141.371C151.055 141.371 149.635 142.791 149.635 144.541C149.635 146.291 151.055 147.711 152.805 147.711Z" fill="#1C4891"/>
<path d="M152.805 166.84C154.555 166.84 155.965 165.42 155.965 163.67C155.965 161.92 154.545 160.5 152.805 160.5C151.055 160.5 149.635 161.92 149.635 163.67C149.635 165.41 151.055 166.84 152.805 166.84Z" fill="#1C4891"/>
<path d="M152.805 165.31C153.715 165.31 154.455 164.57 154.455 163.67V144.54C154.455 143.63 153.715 142.9 152.805 142.9C151.895 142.9 151.155 143.64 151.155 144.54V163.67C151.155 164.58 151.895 165.31 152.805 165.31Z" fill="#B7DBEF"/>
<path d="M149.515 147.44H156.095V160.26H149.515V147.44Z" fill="#59A9EB"/>
<path opacity="0.7" d="M149.515 147.44H152.035V160.26H149.515V147.44Z" fill="#418FDC"/>
<path opacity="0.7" d="M151.165 160.25H154.445V161.88H151.165V160.25Z" fill="#418FDC"/>
<path d="M141.205 147.711C142.955 147.711 144.375 146.291 144.375 144.541C144.375 142.791 142.955 141.371 141.205 141.371C139.455 141.371 138.035 142.791 138.035 144.541C138.035 146.291 139.455 147.711 141.205 147.711Z" fill="#1C4891"/>
<path d="M141.205 166.84C142.955 166.84 144.375 165.42 144.375 163.67C144.375 161.92 142.955 160.5 141.205 160.5C139.455 160.5 138.035 161.92 138.035 163.67C138.035 165.41 139.455 166.84 141.205 166.84Z" fill="#1C4891"/>
<path d="M141.205 165.31C142.115 165.31 142.845 164.57 142.845 163.67V144.54C142.845 143.63 142.105 142.9 141.205 142.9C140.295 142.9 139.565 143.64 139.565 144.54V163.67C139.555 164.58 140.295 165.31 141.205 165.31Z" fill="#B7DBEF"/>
<path d="M137.905 147.44H144.485V160.26H137.905V147.44Z" fill="#59A9EB"/>
<path opacity="0.7" d="M137.915 147.44H140.435V160.26H137.915V147.44Z" fill="#418FDC"/>
<path opacity="0.7" d="M139.555 160.25H142.835V161.88H139.555V160.25Z" fill="#418FDC"/>
<path d="M61.2949 147.711C63.0449 147.711 64.4648 146.291 64.4648 144.541C64.4648 142.791 63.0449 141.371 61.2949 141.371C59.5449 141.371 58.1249 142.791 58.1249 144.541C58.1349 146.291 59.5549 147.711 61.2949 147.711Z" fill="#1C4891"/>
<path d="M61.2949 166.84C63.0449 166.84 64.4648 165.42 64.4648 163.67C64.4648 161.92 63.0449 160.5 61.2949 160.5C59.5449 160.5 58.1249 161.92 58.1249 163.67C58.1349 165.41 59.5549 166.84 61.2949 166.84Z" fill="#1C4891"/>
<path d="M61.295 165.31C62.205 165.31 62.9351 164.57 62.9351 163.67V144.54C62.9351 143.63 62.195 142.9 61.295 142.9C60.395 142.9 59.655 143.64 59.655 144.54V163.67C59.655 164.58 60.385 165.31 61.295 165.31Z" fill="#B7DBEF"/>
<path d="M58.0049 147.44H64.585V160.26H58.0049V147.44Z" fill="#59A9EB"/>
<path opacity="0.7" d="M58.0049 147.44H60.5249V160.26H58.0049V147.44Z" fill="#418FDC"/>
<path opacity="0.7" d="M59.655 160.25H62.9351V161.88H59.655V160.25Z" fill="#418FDC"/>
<path d="M49.6948 147.711C51.4448 147.711 52.8647 146.291 52.8647 144.541C52.8647 142.791 51.4448 141.371 49.6948 141.371C47.9448 141.371 46.5248 142.791 46.5248 144.541C46.5248 146.291 47.9448 147.711 49.6948 147.711Z" fill="#1C4891"/>
<path d="M49.6948 166.84C51.4448 166.84 52.8647 165.42 52.8647 163.67C52.8647 161.92 51.4448 160.5 49.6948 160.5C47.9448 160.5 46.5248 161.92 46.5248 163.67C46.5248 165.41 47.9448 166.84 49.6948 166.84Z" fill="#1C4891"/>
<path d="M49.6949 165.31C50.6049 165.31 51.335 164.57 51.335 163.67V144.54C51.335 143.63 50.5949 142.9 49.6949 142.9C48.7849 142.9 48.0549 143.64 48.0549 144.54V163.67C48.0449 164.58 48.7849 165.31 49.6949 165.31Z" fill="#B7DBEF"/>
<path d="M46.4048 147.44H52.9849V160.26H46.4048V147.44Z" fill="#59A9EB"/>
<path opacity="0.7" d="M46.4048 147.44H48.9248V160.26H46.4048V147.44Z" fill="#418FDC"/>
<path opacity="0.7" d="M48.0549 160.25H51.335V161.88H48.0549V160.25Z" fill="#418FDC"/>
<path d="M71.9851 142.181H130.725V166.141H71.9851V142.181Z" fill="#7EC2FA"/>
<path opacity="0.4" d="M71.9851 142.421H130.725V153.311H71.9851V142.421Z" fill="#B7DBEF"/>
<path d="M120.965 141.241H124.145V167.081H120.965V141.241Z" fill="#1C4891"/>
<path d="M77.1549 141.241H80.335V167.081H77.1549V141.241Z" fill="#1C4891"/>
<path opacity="0.7" d="M71.9851 162.591H130.725V166.141H71.9851V162.591Z" fill="#418FDC"/>
<path fill-rule="evenodd" clip-rule="evenodd" d="M107.795 115.32V97.4703L107.705 97.1503C107.625 96.8403 99.3349 66.3103 95.1949 53.2603C94.6449 51.5303 92.525 49.5903 90.515 49.5903H67.585V94.4203L85.3549 115.33H107.795V115.32Z" fill="#D6D4E4"/>
<path d="M70.1049 52.0903V93.4803L86.525 112.8H105.285V97.8003C105.285 97.8003 96.9749 67.1603 92.8049 54.0103C92.5449 53.1803 91.305 52.0903 90.515 52.0903C80.695 52.0903 70.1049 52.0903 70.1049 52.0903ZM65.085 47.0703H70.1049H90.515C93.825 47.0703 96.7649 49.8803 97.5949 52.4903C101.755 65.5903 109.795 95.2303 110.135 96.4903L110.315 97.1403V97.8103V112.81V117.83H105.295H86.5349H84.2149L82.7149 116.06L66.2949 96.7403L65.0949 95.3303V93.4803V52.0903V47.0703H65.085Z" fill="#4E4774"/>
<g opacity="0.9">
<path fill-rule="evenodd" clip-rule="evenodd" d="M79.8149 92.0506L96.2349 70.6406L91.3448 54.1206H90.2849L71.5349 78.7506V92.0506H79.8149Z" fill="#E5E4F0"/>
</g>
<g opacity="0.3">
<g opacity="0.3">
<path opacity="0.3" d="M82.8547 82.8205C82.9047 82.7805 87.5147 78.8705 90.0947 77.0205L88.8447 75.2705C86.1847 77.1705 81.6547 81.0205 81.4647 81.1805L82.8547 82.8205Z" fill="#3A3A39"/>
</g>
<g opacity="0.3">
<path opacity="0.3" d="M86.2671 78.7618L89.4194 82.8345L88.5654 83.4955L85.4131 79.4229L86.2671 78.7618Z" fill="#3A3A39"/>
</g>
<path opacity="0.3" d="M98.9449 76.1406L86.4349 83.1406L92.6849 95.8806L102.705 99.0106V107.741H105.715L105.375 96.4506L98.9449 76.1406Z" fill="#3A3A39"/>
</g>
<path fill-rule="evenodd" clip-rule="evenodd" d="M92.6249 93.4907L102.285 81.9907L105.715 97.8007V112.811L85.3049 113.601L69.5049 93.4907H92.6249Z" fill="#4E4774"/>
<path d="M35.7146 49.5205H56.4746V85.9505H35.7146V49.5205Z" fill="#D6D4E4"/>
<path d="M38.2246 52.0308V83.4408H53.9646V52.0308H38.2246ZM33.1946 47.0107H38.2146H53.9547H58.9746V52.0308V83.4408V88.4608H53.9547H38.2146H33.1946V83.4408V52.0308V47.0107Z" fill="#4E4774"/>
<g opacity="0.9">
<path fill-rule="evenodd" clip-rule="evenodd" d="M52.5249 63.1407V54.2007H46.1949L39.6548 62.8607V80.4307L52.5249 63.1407Z" fill="#E5E4F0"/>
</g>
<path d="M28.8547 46.7803H100.055V52.7703H28.8547V46.7803Z" fill="#4E4774"/>
<path d="M253.525 56.6804L197.395 34.8804L177.385 15.3604L181.855 5.88037L260.125 38.4704L253.525 56.6804Z" fill="#C8C8C8"/>
<path d="M253.525 56.6803L249.245 34.0603L243.805 31.7103L244.565 46.1503L191.525 26.0503L188.875 31.5703L253.525 56.6803Z" fill="#C8C8C8"/>
<path d="M264.285 119.02C263.505 119.14 262.745 118.6 262.595 117.82L244.835 25.7104C244.685 24.9404 245.195 24.1904 245.975 24.0504L269.005 19.9004C269.785 19.7604 270.455 20.2904 270.505 21.0804L276.165 115.78C276.215 116.57 275.615 117.31 274.835 117.43L264.285 119.02Z" fill="#7EC2FA"/>
<path fill-rule="evenodd" clip-rule="evenodd" d="M254.315 107.291L239.585 158.911L225.195 161.351L223.095 166.321L248.455 176.601L287.625 159.791L300.175 136.831C300.175 136.831 294.795 122.521 292.675 116.761L254.315 107.291Z" fill="#4E4774"/>
<path d="M202.985 39.3005C203.235 40.2505 202.675 41.3005 201.745 41.6205L193.055 44.6005C192.125 44.9205 190.985 44.4705 190.535 43.5905L172.355 8.5705C171.905 7.6905 172.285 6.7105 173.215 6.3805L190.865 0.100498C191.795 -0.229502 192.755 0.280503 193.005 1.2305L202.985 39.3005Z" fill="#418FDC"/>
<path fill-rule="evenodd" clip-rule="evenodd" d="M225.195 161.341L251.305 171.651L283.775 155.121L294.595 134.901C294.595 134.901 292.855 126.731 288.985 120.721L252.925 111.811L240.695 154.171L225.195 161.341Z" fill="#69628B"/>
<path fill-rule="evenodd" clip-rule="evenodd" d="M237.785 166.311L241.445 154.161L227.775 154.681L225.195 161.341L237.785 166.311Z" fill="#4E4774"/>
<path fill-rule="evenodd" clip-rule="evenodd" d="M237.785 166.311L244.665 159.331L226.525 157.911L225.195 161.341L237.785 166.311Z" fill="#69628B"/>
<path d="M292.915 101.92C292.075 100.79 292.305 99.2004 293.435 98.3604C294.565 97.5204 296.165 97.7503 297.005 98.8803C297.845 100.01 297.615 101.6 296.485 102.44C295.355 103.28 293.755 103.05 292.915 101.92Z" fill="#F7F7F7"/>
<path d="M270.285 93.1204C268.435 90.6304 268.945 87.1204 271.435 85.2704C273.925 83.4204 277.445 83.9404 279.305 86.4204C281.155 88.9104 280.645 92.4204 278.155 94.2704C275.655 96.1204 272.135 95.6004 270.285 93.1204Z" fill="#7EC2FA"/>
<path d="M272.745 91.2905C271.905 90.1605 272.135 88.5705 273.265 87.7305C274.395 86.8905 275.995 87.1205 276.835 88.2505C277.675 89.3805 277.445 90.9705 276.315 91.8105C275.185 92.6505 273.585 92.4105 272.745 91.2905Z" fill="#F7F7F7"/>
<path d="M176.385 9.51059C175.975 8.95059 176.085 8.17059 176.645 7.76059C177.205 7.35059 177.985 7.4606 178.395 8.0206C178.805 8.5806 178.695 9.3606 178.135 9.7706C177.575 10.1806 176.795 10.0606 176.385 9.51059Z" fill="#F7F7F7"/>
<path d="M189.335 5.01059C188.925 4.46059 189.035 3.67059 189.595 3.26059C190.155 2.85059 190.935 2.9606 191.345 3.5206C191.755 4.0706 191.645 4.8606 191.085 5.2706C190.535 5.6806 189.745 5.57059 189.335 5.01059Z" fill="#F7F7F7"/>
<path fill-rule="evenodd" clip-rule="evenodd" d="M300.425 120.981C300.475 125.671 296.255 129.931 291.595 129.911C286.905 129.891 282.655 125.561 282.785 120.941C282.925 116.031 286.875 112.231 291.805 112.281C296.405 112.311 300.385 116.331 300.425 120.981Z" fill="#69628B"/>
<path d="M289.035 123.17C287.955 121.72 288.255 119.67 289.705 118.59C291.155 117.51 293.215 117.81 294.295 119.26C295.375 120.71 295.075 122.76 293.625 123.84C292.165 124.92 290.115 124.62 289.035 123.17Z" fill="#E5E4F0"/>
<path fill-rule="evenodd" clip-rule="evenodd" d="M131.665 111.841C131.665 112.631 132.315 113.281 133.105 113.281H158.595C159.385 113.281 160.035 112.631 160.035 111.841V104.581C160.035 103.791 159.385 103.141 158.595 103.141H133.105C132.315 103.141 131.665 103.791 131.665 104.581V111.841Z" fill="#4E4774"/>
<path fill-rule="evenodd" clip-rule="evenodd" d="M11.1246 97.5905C11.1246 98.3805 11.7746 99.0305 12.5646 99.0305H20.0746C20.8646 99.0305 21.5146 98.3805 21.5146 97.5905V95.4005C21.5146 94.6105 20.8646 93.9604 20.0746 93.9604H12.5646C11.7746 93.9604 11.1246 94.6105 11.1246 95.4005V97.5905Z" fill="#4E4774"/>
</svg>
