<svg width="21" height="19" viewBox="0 0 21 19" fill="#FFFFFF" xmlns="http://www.w3.org/2000/svg">
<path d="M19.4483 0.831309L0.639021 8.16109C0.0297853 8.39852 0.0666938 9.27278 0.693829 9.45794L5.47347 10.8694L7.25723 16.5294C7.44357 17.1206 8.19278 17.2999 8.62649 16.857L11.0977 14.3338L15.9464 17.8929C16.5398 18.3284 17.3848 18.0048 17.5355 17.2844L20.7468 1.93097C20.9041 1.17891 20.1642 0.552335 19.4483 0.831309ZM17.0901 4.23861L8.35332 11.9646C8.26623 12.0416 8.2108 12.1482 8.19784 12.2637L7.86147 15.2539C7.85048 15.3514 7.71402 15.3643 7.68489 15.2706L6.30095 10.8112C6.23756 10.607 6.3202 10.3858 6.50185 10.2732L16.8191 3.87434C17.0564 3.72708 17.2993 4.0537 17.0901 4.23861Z" />
</svg>
