<svg width="23" height="19" viewBox="0 0 23 19" fill="#FFFFFF" xmlns="http://www.w3.org/2000/svg">
<path d="M22.0921 2.81483C21.2991 3.16268 20.4541 3.39326 19.5732 3.50521C20.4795 2.9641 21.1712 2.11378 21.4964 1.08887C20.6514 1.59266 19.7184 1.94852 18.7242 2.1471C17.9219 1.29279 16.7783 0.763672 15.5308 0.763672C13.1105 0.763672 11.162 2.7282 11.162 5.13654C11.162 5.48306 11.1913 5.81626 11.2633 6.13346C7.62875 5.9562 4.41274 4.21425 2.2523 1.56068C1.87512 2.21507 1.65388 2.9641 1.65388 3.77043C1.65388 5.28448 2.43356 6.62659 3.59575 7.40361C2.89337 7.39028 2.20432 7.18636 1.62056 6.86516C1.62056 6.87849 1.62056 6.89581 1.62056 6.91314C1.62056 9.0376 3.13594 10.8022 5.12312 11.2087C4.76727 11.306 4.37943 11.3526 3.97692 11.3526C3.69704 11.3526 3.41449 11.3367 3.14926 11.278C3.7157 13.0093 5.32304 14.2821 7.23425 14.3234C5.74686 15.4869 3.85831 16.188 1.81381 16.188C1.4553 16.188 1.11144 16.172 0.767578 16.128C2.70411 17.3768 4.99917 18.0899 7.47415 18.0899C15.5188 18.0899 19.917 11.426 19.917 5.64966C19.917 5.45641 19.9104 5.26982 19.901 5.08456C20.7687 4.46881 21.4977 3.6998 22.0921 2.81483Z" />
</svg>
