<svg width="235" height="237" viewBox="0 0 235 237" fill="none" xmlns="http://www.w3.org/2000/svg">
<path d="M55.5809 16.3566C47.8155 27.6762 56.9207 46.0283 45.398 54.5418C34.1816 62.8287 20.4034 49.2456 9.83269 56.3789C-5.84799 66.9609 -2.98464 115.383 19.9415 145.469C26.8362 154.517 32.5967 158.037 35.1489 168.269C40.6273 190.241 21.3723 203.311 25.0369 214.179C33.2876 238.647 160.174 259.179 211.087 185.643C234.866 151.299 238.424 101.706 217.178 64.0387C178.788 -4.02375 73.0044 -9.04267 55.5809 16.3566Z" fill="#F4F7FA"/>
<path d="M126.89 209.475C128.705 208.808 132.065 205.76 132.614 204.604C136.262 196.91 144.029 182.95 141.523 174.305C141.095 172.828 134.091 172.958 132.842 171.798C128.356 170.796 126.739 170.728 122.942 167.681C111.733 158.687 126.931 133.567 102.158 131.577C84.0125 130.12 71.0291 139.205 66.8784 112.493C62.7277 85.7796 30.9874 42.5925 7.38421 67.2453C-6.16186 81.3935 15.0964 100.083 10.6425 118.442C6.41041 135.887 15.9863 147.283 34.7762 152.909C53.5653 158.534 46.3126 167.786 44.856 183.782C43.1067 202.997 71.3532 199.915 84.2729 197.38C94.6775 195.339 122.546 197.16 126.89 209.475Z" fill="#D9F0FD"/>
<g opacity="0.5">
<g opacity="0.5">
<path opacity="0.5" d="M137.357 189.782L137.448 189.381C75.7041 175.356 28.9716 126.218 12.4389 57.9375L12.0391 58.0342C19.8746 90.3944 35.107 119.549 56.0896 142.346C78.1491 166.313 106.251 182.716 137.357 189.782Z" fill="#FCFDFE"/>
<path opacity="0.5" d="M43.5758 191.839C58.3657 182.829 85.1297 176.408 103.237 177.526L103.262 177.116C85.0838 175.994 58.2125 182.441 43.3613 191.488L43.5758 191.839Z" fill="#FCFDFE"/>
<path opacity="0.5" d="M125.268 186.89L125.466 186.529C117.21 181.974 111.572 173.419 108.713 161.103C106.616 152.072 106.034 141.268 106.981 128.987L106.57 128.956C105.62 141.278 106.205 152.125 108.312 161.196C111.199 173.631 116.904 182.275 125.268 186.89Z" fill="#FCFDFE"/>
<path opacity="0.5" d="M53.2371 138.995L53.454 138.646C38.332 129.259 19.638 130.179 6.61914 132.605L6.69492 133.009C19.642 130.597 38.2272 129.677 53.2371 138.995Z" fill="#FCFDFE"/>
<path opacity="0.5" d="M29.9856 105.537L30.3782 105.414C24.4057 86.2736 31.5898 66.4906 36.4032 56.402L36.0324 56.2246C31.1924 66.368 23.9712 86.2623 29.9856 105.537Z" fill="#FCFDFE"/>
</g>
</g>
<path d="M89.8889 214.053C99.2761 213.322 108.669 212.377 118.06 211.218C118.201 211.365 122.629 191.371 113.759 180.12C96.1871 158.296 110.23 140.75 114.622 130.085C121.451 115.1 119.553 98.2378 103.915 96.9206C86.5958 95.1197 85.4141 66.1678 90.3491 40.2422C93.6542 27.6602 82.6837 11.3685 70.9224 7.01224C58.9362 2.25693 46.1592 9.43705 40.6727 34.5921C32.9864 63.6261 53.2442 82.8384 60.1865 98.1346C67.0192 113.151 48.0181 123.623 61.7891 137.456C73.3303 149.7 88.2992 158.957 81.6382 172.889C74.8321 186.648 75.4375 198.319 89.8889 214.053Z" fill="#B9DBF7"/>
<g opacity="0.5">
<path opacity="0.5" d="M102.703 216.131C102.718 215.952 96.7477 172.832 84.2568 130.397C82.6011 123.558 80.7655 116.645 78.9904 109.96C69.1042 72.7299 59.7661 37.5636 74.98 0.21201L74.4609 0C59.176 37.5266 68.5375 72.7799 78.4487 110.104C80.223 116.786 82.0577 123.696 83.7159 130.542C96.2737 173.207 102.134 215.843 102.144 216.106L102.703 216.131Z" fill="white"/>
<path opacity="0.5" d="M70.0313 75.4728L70.4722 75.127C60.9012 62.9094 49.5211 45.6963 43.4067 36.4485C38.4579 28.9645 38.4346 28.9653 38.146 28.9911L38.1702 29.27L38.0234 29.503C38.304 29.7464 40.3499 32.8403 42.9392 36.7572C49.0576 46.0115 60.4465 63.2367 70.0313 75.4728Z" fill="white"/>
<path opacity="0.5" d="M68.1423 59.4334C71.1733 46.4516 77.1595 38.1744 81.648 33.5166C86.5371 28.4429 90.9676 26.2591 91.4988 26.201L91.4746 25.985L91.6907 25.7061C91.5577 25.6029 91.3956 25.6319 91.1433 25.7222C87.5254 27.0088 72.9258 36.4783 67.5957 59.306L68.1423 59.4334Z" fill="white"/>
<path opacity="0.5" d="M90.9632 158.085L91.5235 158.057C90.1942 131.581 109.706 108.3 118.157 99.5184C118.611 99.0468 118.757 98.8937 118.812 98.8123L118.347 98.4987L118.579 98.6551L118.348 98.4971C118.307 98.5535 118.05 98.8203 117.752 99.1299C111.658 105.463 106.431 112.2 102.217 119.156C94.1232 132.516 90.3368 145.614 90.9632 158.085Z" fill="white"/>
<path opacity="0.5" d="M54.5942 123.583L54.5934 123.306L54.487 123.563L54.3145 123.275L54.5402 123.027C54.541 123.027 54.5418 123.027 54.5434 123.027C54.9271 123.011 78.2675 125.913 88.1635 144.651L87.6677 144.913C77.8709 126.362 54.8175 123.592 54.5942 123.583ZM54.595 123.303L54.7022 123.044L54.595 123.303Z" fill="white"/>
<path opacity="0.5" d="M101.627 209.079C101.796 203.737 104.326 194.78 115.416 182.45C116.046 181.75 116.046 181.75 116.034 181.604L115.475 181.646L115.755 181.625L115.51 181.492C115.473 181.547 115.253 181.791 114.999 182.074C103.795 194.531 101.238 203.625 101.066 209.061L101.627 209.079Z" fill="white"/>
<path opacity="0.5" d="M99.3981 198.856L99.9463 198.737C97.8415 189.041 85.0516 181.181 77.6159 177.358C77.3797 177.237 77.2282 177.159 77.1742 177.127L76.8848 177.607C76.9428 177.642 77.1056 177.727 77.3596 177.857C84.7074 181.635 97.3417 189.386 99.3981 198.856Z" fill="white"/>
</g>
<path d="M234.861 218.55L12.1953 216.652V222.268C12.1953 223.792 13.1667 225.088 14.4815 225.319L77.4444 236.377C78.1917 236.509 78.9494 236.543 79.7031 236.481L232.441 223.873C233.805 223.76 234.861 222.46 234.861 220.894V218.55H234.861Z" fill="#171717"/>
<path d="M154.058 209.551L14.4987 219.824C12.0013 220.008 9.9707 218.054 9.9707 215.46V111.535C9.9707 108.941 12.0013 106.838 14.4987 106.838H154.058C156.115 106.838 157.779 108.739 157.779 111.084V205.031C157.779 207.376 156.115 209.399 154.058 209.551Z" fill="#26264F"/>
<path d="M156.281 209.551L16.7233 219.824C14.2259 220.008 12.1953 218.054 12.1953 215.46V111.535C12.1953 108.941 14.2259 106.838 16.7233 106.838H156.282C158.339 106.838 160.003 108.739 160.003 111.084V205.031C160.003 207.376 158.339 209.399 156.281 209.551Z" fill="#444444"/>
<path d="M151.935 202.927L21.9516 211.851C19.9193 211.99 18.2676 210.387 18.2676 208.269V117.282C18.2676 115.165 19.9193 113.441 21.9516 113.432L151.936 112.872C153.633 112.865 155.006 114.422 155.006 116.351V199.224C155.006 201.153 153.633 202.811 151.935 202.927Z" fill="#EFF2F6"/>
<path d="M91.4328 109.68C91.4328 110.646 90.7145 111.431 89.8278 111.434C88.9394 111.437 88.2188 110.654 88.2188 109.686C88.2188 108.718 88.9394 107.933 89.8278 107.933C90.7145 107.933 91.4328 108.715 91.4328 109.68Z" fill="white"/>
<path opacity="0.48" d="M16.7236 219.824L155.576 209.602L156.283 209.55C157.227 209.481 158.086 209.014 158.741 208.306C148.749 207.759 142.543 204.213 138.54 200.549C130.5 193.191 131.894 185.935 123.224 181.098C112.41 175.064 103.908 182.709 95.7018 175.166C90.7272 170.592 93.1689 167.182 87.0481 160.347C80.2678 152.776 75.8534 155.321 69.0401 148.508C60.4243 139.894 64.7338 133.191 57.3119 127.006C48.3091 119.503 38.5994 126.448 30.0295 119.252C26.3334 116.149 24.3044 111.637 23.246 106.838H16.7252C14.2279 106.838 12.1973 108.941 12.1973 111.535V215.46C12.1965 218.054 14.2263 220.007 16.7236 219.824Z" fill="white"/>
<path d="M161.844 208.981L12.1953 219.794L77.4452 231.254C78.1925 231.385 78.9502 231.42 79.7039 231.358L234.861 218.549L164.225 209.053C163.435 208.948 162.638 208.923 161.844 208.981Z" fill="#444444"/>
<path d="M34.0312 219.887L158.618 210.75L197.177 215.892L73.6634 225.659L34.0312 219.887Z" fill="#171717"/>
<path d="M187.321 91.6124C188.625 87.6874 188.101 85.5359 187.321 84.284C186.232 82.5379 183.738 81.0909 179.135 77.5666C178.833 77.336 178.313 76.9241 178.379 76.6984C178.541 76.1389 181.047 76.4283 183.227 77.5666C186.387 79.2167 187.046 79.344 188.924 79.9285C192.244 80.9611 195.163 80.0986 199.6 78.7878C201.43 78.2469 203.994 77.332 206.909 75.7342C206.909 75.7342 210.125 74.2074 211.002 75.7342L206.324 78.1768C206.324 78.1768 210.416 76.3445 212.756 77.5657L204.57 81.2296C204.57 81.2296 210.709 79.3973 211.002 80.6185C207.011 83.5915 203.492 84.6064 200.769 84.8934C196.578 85.3351 193.424 84.1445 192.29 85.8091C191.375 87.1529 192.325 89.552 193.46 91.6108H187.321V91.6124Z" fill="#F1EACF"/>
<path d="M132.356 120.314C136.003 114.608 140.482 111.189 143.724 109.127C144.895 109.666 146.694 110.568 148.747 111.923C154.671 115.832 155.322 118.648 160.349 121.908C163.015 123.637 166.318 125.778 170.556 125.487C175.436 125.15 178.781 121.781 180.171 120.381C189.706 110.775 185.976 92.5783 185.565 90.6952C189.17 90.5936 192.776 90.4912 196.382 90.3896C198.279 93.8632 208.731 116.015 201.06 138.33C190.073 170.289 145.38 170.565 131.868 155.852C123.821 147.091 123.869 133.593 132.356 120.314Z" fill="#B1B1B1"/>
<path d="M62.9981 215.7C61.7792 213.893 59.6309 210.151 57.98 205.28C53.5133 192.108 55.9397 180.288 56.541 176.94C58.562 165.693 58.8715 144.983 52.1719 103.728C64.1363 100.573 82.129 97.4157 103.803 99.5076C120.235 101.094 133.797 105.216 143.726 109.129C143.985 128.104 142.513 143.155 141.142 153.309C138.944 169.582 136.805 174.776 136.555 188.69C136.178 209.629 140.758 212.579 137.267 219.073C127.233 237.738 76.9907 236.453 62.9981 215.7Z" fill="#B1B1B1"/>
<path d="M96.5486 77.2441C95.9529 83.1474 95.3579 89.0506 94.763 94.9538C94.6018 96.5532 93.3741 97.8067 91.8392 97.9389C85.7643 98.4621 79.6902 98.9844 73.6152 99.5076L107.304 110.295L122.748 102.603C118.036 101.078 113.323 99.5527 108.611 98.0276C107.401 97.6358 106.525 96.5354 106.378 95.2215C105.967 91.5762 105.558 87.9309 105.147 84.2856L96.5486 77.2441Z" fill="#F1EACF"/>
<path d="M93.2618 74.4974C96.9756 83.3977 106.269 90.7649 111.07 88.5787C115.872 86.3933 115.361 75.3212 111.647 66.42C107.933 57.5196 100.821 54.1251 96.0195 56.3105C91.2183 58.4975 89.548 65.597 93.2618 74.4974Z" fill="#F1EACF"/>
<path d="M99.5061 73.6905C99.0378 74.0572 97.2087 71.4381 96.1954 71.9057C95.3401 72.2999 95.1088 74.8714 96.1454 76.6344C97.0281 78.1354 98.2026 77.9855 98.5452 79.156C99.1079 81.081 96.6533 83.9564 95.7351 83.6178C95.1458 83.401 95.6343 82.0258 95.062 80.4554C93.9366 77.3688 90.2414 77.7243 87.2241 75.3632C82.4792 71.6502 81.187 62.6095 84.0157 59.2246C85.0911 57.938 86.2962 58.0251 87.7577 55.9534C89.3401 53.7107 88.6485 52.5846 89.8657 51.1432C91.931 48.6967 96.4646 48.9248 99.3296 49.8285C102.934 50.9659 103.196 52.9522 105.608 52.8063C108.465 52.633 108.876 49.7994 112.283 49.2787C112.479 49.2489 115.659 48.8144 118.054 50.9748C121.164 53.7801 120.403 58.6644 120.295 59.3568C119.605 63.7824 116.147 67.7727 112.322 68.6707C111.517 68.8594 111.679 68.6804 103.578 68.4765C100.902 68.4088 99.2837 68.3886 98.7452 69.3721C97.9681 70.7916 99.9769 73.3221 99.5061 73.6905Z" fill="#444444"/>
<path opacity="0.3" d="M56.5428 136.524C60.8426 138.561 63.1602 141.143 64.4863 143.523C69.5447 152.598 61.7632 161.494 67.3504 172.84C71.1956 180.649 76.2919 179.301 78.8078 186.601C82.0356 195.966 75.0118 202.142 75.3705 211.731C75.5511 216.566 77.6237 222.605 84.6506 229.507C75.4278 226.85 67.4109 222.244 62.999 215.701C61.7801 213.894 59.6318 210.152 57.9809 205.281C53.5142 192.109 55.9406 180.289 56.542 176.94C57.9357 169.182 58.5153 156.922 56.5428 136.524Z" fill="#E4E4E4"/>
<path d="M37.5962 223.265C22.5942 215.69 22.2081 188.862 22.0025 175.041C21.8405 164.174 21.1601 118.532 46.42 105.954C50.8286 103.759 55.0245 103.069 58.0918 102.861C60.9995 104.723 68.2699 109.961 70.8559 119.392C72.3198 124.732 71.8716 129.922 69.9281 136.942C64.8987 155.104 57.3864 158.321 52.773 170.317C43.3873 194.72 60.5182 216.504 51.4816 223.94C46.8037 227.788 38.366 223.654 37.5962 223.265Z" fill="#B1B1B1"/>
<path d="M106.649 87.5541C100.121 87.5541 97.6631 78.2007 97.6373 78.0983C97.5752 77.8549 97.7219 77.6082 97.9654 77.5461C98.208 77.4849 98.4563 77.6316 98.5176 77.8742C98.5434 77.9758 101.19 88.0306 108.093 86.4788C108.339 86.4248 108.581 86.5779 108.636 86.823C108.691 87.0672 108.537 87.3107 108.293 87.3655C107.718 87.4945 107.17 87.5541 106.649 87.5541Z" fill="white"/>
<path d="M112.414 86.0559C112.593 86.7443 111.721 87.5665 110.467 87.8922C109.212 88.2187 108.05 87.9253 107.871 87.2368C107.692 86.5484 108.564 85.7262 109.819 85.4005C111.073 85.0748 112.235 85.3682 112.414 86.0559Z" fill="white"/>
<path d="M99.3928 76.0145C99.8805 77.8911 99.3259 79.6598 98.1538 79.9645C96.9817 80.2692 95.6354 78.9947 95.1477 77.1181C94.66 75.2414 95.2146 73.4728 96.3867 73.1681C97.5588 72.8633 98.9051 74.1378 99.3928 76.0145Z" fill="white"/>
<path d="M178.38 99.4474L170.535 93.7134L170.571 77.4878C170.575 75.724 169.196 74.223 167.485 74.1343L130.626 72.2158C128.722 72.1166 127.148 73.5523 127.121 75.4241L126.83 95.8762C126.804 97.7714 128.346 99.3337 130.266 99.3635L162.961 99.8657L167.406 99.9343L178.189 100.1C178.525 100.105 178.658 99.6497 178.38 99.4474Z" fill="#B1B1B1"/>
<path d="M143.038 85.4983C143.027 86.6777 142.06 87.6031 140.876 87.5652C139.687 87.5273 138.731 86.535 138.744 85.3492C138.757 84.1642 139.733 83.2404 140.92 83.2847C142.103 83.3299 143.05 84.3206 143.038 85.4983Z" fill="white"/>
<path d="M150.303 85.7504C150.294 86.9176 149.347 87.835 148.187 87.7979C147.022 87.7608 146.083 86.7782 146.094 85.6045C146.104 84.4316 147.059 83.5158 148.222 83.5601C149.381 83.6029 150.311 84.5839 150.303 85.7504Z" fill="white"/>
<path d="M157.425 85.9972C157.418 87.1532 156.493 88.0617 155.354 88.0254C154.213 87.9892 153.291 87.017 153.299 85.8546C153.307 84.6929 154.24 83.7869 155.381 83.8296C156.518 83.8715 157.431 84.8421 157.425 85.9972Z" fill="white"/>
<path d="M208.793 19.5195L149.629 18.0029C144.924 17.8825 141.023 21.4728 140.94 26.028L140.4 55.3713C140.315 59.9625 144.102 63.6877 148.833 63.6877H208.329C212.728 63.6877 216.311 60.1203 216.353 55.7236L216.621 27.6193C216.664 23.2565 213.167 19.6316 208.793 19.5195Z" fill="#B7DBEF"/>
<path d="M145.59 49.2188L124.681 62.5784C124.156 62.9141 124.389 63.6886 125.014 63.6886H154.558L145.59 49.2188Z" fill="#B7DBEF"/>
<path d="M161.718 31.8291C162.511 31.8291 163.236 31.9461 163.895 32.18C164.553 32.414 165.116 32.7448 165.583 33.1733C166.051 33.6011 166.416 34.1167 166.678 34.7196C166.939 35.3225 167.07 35.9925 167.07 36.7297C167.07 37.3644 166.977 37.9507 166.791 38.4899C166.604 39.0291 166.355 39.5448 166.042 40.0362C165.728 40.5276 165.362 41.0039 164.941 41.4635C164.521 41.9231 164.081 42.391 163.621 42.8672L159.744 46.8278C160.124 46.7171 160.497 46.6312 160.861 46.5724C161.226 46.5129 161.575 46.4831 161.908 46.4831H166.321C166.638 46.4831 166.89 46.5724 167.076 46.751C167.262 46.9295 167.355 47.1656 167.355 47.4584V49.2186H155.557V48.2433C155.557 48.0453 155.598 47.8391 155.681 47.6245C155.764 47.4106 155.897 47.212 156.08 47.0299L161.302 41.7964C161.738 41.3527 162.128 40.9284 162.473 40.5235C162.818 40.1193 163.108 39.7185 163.341 39.3219C163.575 38.9253 163.753 38.5231 163.876 38.1147C163.998 37.7063 164.06 37.2765 164.06 36.8238C164.06 36.4113 164 36.0486 163.881 35.7357C163.762 35.4229 163.592 35.1585 163.37 34.9446C163.148 34.7307 162.884 34.5701 162.579 34.4628C162.273 34.3555 161.93 34.3022 161.55 34.3022C160.844 34.3022 160.263 34.4808 159.807 34.8373C159.351 35.1944 159.032 35.6741 158.85 36.2763C158.763 36.5774 158.632 36.7934 158.458 36.9242C158.283 37.055 158.061 37.1208 157.792 37.1208C157.673 37.1208 157.542 37.109 157.399 37.0848L155.853 36.8114C155.972 35.987 156.202 35.263 156.543 34.6407C156.884 34.0184 157.31 33.4986 157.821 33.0826C158.333 32.6666 158.92 32.3531 159.582 32.1434C160.244 31.9343 160.956 31.8291 161.718 31.8291Z" fill="white"/>
<path d="M179.558 42.7368H181.723V44.4374C181.723 44.596 181.671 44.733 181.569 44.8479C181.465 44.9628 181.314 45.0203 181.117 45.0203H179.558V49.219H176.989V45.0203H169.734C169.536 45.0203 169.361 44.9587 169.21 44.8361C169.06 44.7136 168.965 44.5606 168.925 44.3786L168.627 42.8918L176.775 32.0088H179.558V42.7368ZM176.988 37.1108C176.988 36.8575 176.996 36.5834 177.013 36.2899C177.029 35.9964 177.056 35.6911 177.096 35.3741L171.755 42.7368H176.988V37.1108Z" fill="white"/>
<path d="M184.744 49.2546C184.673 49.4366 184.582 49.5951 184.471 49.7301C184.359 49.8651 184.233 49.9779 184.09 50.0693C183.948 50.1606 183.797 50.2298 183.638 50.2776C183.479 50.3254 183.325 50.3489 183.174 50.3489H181.938L188.883 32.5787C189.018 32.2458 189.212 31.9897 189.466 31.8118C189.72 31.6332 190.026 31.5439 190.382 31.5439H191.631L184.744 49.2546Z" fill="white"/>
<path d="M204.392 32.0195V33.2924C204.392 33.6731 204.35 33.9805 204.267 34.2144C204.184 34.4484 204.102 34.6449 204.023 34.8035L197.517 48.2198C197.382 48.4974 197.192 48.7334 196.946 48.9272C196.7 49.1217 196.367 49.2186 195.947 49.2186H193.818L200.479 36.0757C200.756 35.5365 201.066 35.0727 201.406 34.6844H193.176C192.993 34.6844 192.834 34.6173 192.7 34.4823C192.565 34.3473 192.498 34.1888 192.498 34.0068V32.0202H204.392V32.0195Z" fill="white"/>
</svg>
