<svg width="149" height="83" viewBox="0 0 149 83" fill="none" xmlns="http://www.w3.org/2000/svg">
<g clip-path="url(#clip0_943_66215)">
<path d="M105.333 29.0527L109.381 33.4977L113.279 29.0527H121.601L113.468 38.1648L121.712 47.3514H113.054L109.044 42.8712L105.071 47.3514H96.7109L104.883 38.2027L96.7109 29.0527H105.333Z" fill="#ABABAB"/>
<path d="M96.7103 29.0524V35.235H87.4545V40.9084H96.7103V47.3511H80.6523V18.5264H96.7103V24.9514H87.4545V29.0524H96.7103Z" fill="#ABABAB"/>
<path d="M73.8786 18.5264V30.3228H73.8039C72.3031 28.6055 70.43 28.0082 68.2564 28.0082C63.8032 28.0082 60.4483 31.0257 59.2711 35.0129C57.9267 30.6194 54.4631 27.9256 49.3275 27.9256C45.1571 27.9256 41.8634 29.7905 40.1452 32.8297V29.0524H31.5242V24.9514H40.9322V18.5264H23.8398V47.3511H31.5242V35.235H39.1841C38.9557 36.1248 38.8334 37.0783 38.8334 38.0846C38.8334 44.0966 43.4443 48.3167 49.3275 48.3167C54.2755 48.3167 57.5366 46.0021 59.2602 41.7833H52.6742C51.7839 43.0523 51.1083 43.4275 49.3275 43.4275C47.2627 43.4275 45.4819 41.633 45.4819 39.5053H58.8919C59.4737 44.2807 63.2078 48.3993 68.3311 48.3993C70.5414 48.3993 72.5655 47.3158 73.8025 45.4875H73.8773V47.3538H80.6509V18.5264H73.8786ZM45.6967 35.3203C46.1236 33.4893 47.5495 32.2934 49.3289 32.2934C51.2877 32.2934 52.6402 33.4527 52.9964 35.3203C53.1459 35.3203 45.6967 35.3203 45.6967 35.3203ZM69.7666 42.963C67.2695 42.963 65.7171 40.6443 65.7171 38.2241C65.7171 35.6373 67.067 33.1493 69.7666 33.1493C72.5655 33.1493 73.6802 35.6373 73.6802 38.2241C73.6802 40.6768 72.4989 42.963 69.7666 42.963Z" fill="#BEBEBE"/>
<path d="M80.6523 61.7642V51.4346H86.3806V52.2052H81.5971V56.0136H86.1781V56.7843H81.5971V60.9909H86.594V61.7629H80.6523V61.7642Z" fill="#BEBEBE"/>
<path d="M87.2793 61.7636L90.0727 58.0541L87.4234 54.5449H88.4973L90.66 57.4121L92.7792 54.5449H93.8531L91.1616 58.0541L93.9673 61.7636H92.8798L90.5594 58.6947L88.3545 61.7636H87.2793Z" fill="#BEBEBE"/>
<path d="M95.7847 64.4731H94.9107V56.7004C94.9107 55.9867 94.9107 55.2607 94.8672 54.5456H95.7277L95.7562 55.6305C96.2986 54.7732 97.015 54.375 98.0902 54.375C100.324 54.375 101.282 56.2142 101.282 58.1536C101.282 60.0958 100.324 61.935 98.0902 61.935C97.087 61.935 96.2999 61.5504 95.7847 60.7215V64.4731ZM100.352 58.1536C100.352 56.6137 99.7065 55.1009 97.9896 55.1009C96.372 55.1009 95.7847 56.4282 95.7847 58.1536C95.7847 59.8804 96.372 61.2064 97.9896 61.2064C99.7078 61.2064 100.352 59.6949 100.352 58.1536Z" fill="#BEBEBE"/>
<path d="M105.772 55.2147C104.325 55.2147 103.822 56.4282 103.822 57.6823V61.7644H102.948V56.6693C102.948 55.9704 102.935 55.2594 102.906 54.5456H103.768L103.824 55.5871C104.253 54.761 104.971 54.375 105.929 54.375C106.059 54.375 106.201 54.3885 106.33 54.4034V55.2743C106.129 55.2431 105.972 55.2147 105.772 55.2147Z" fill="#BEBEBE"/>
<path d="M107.403 58.3108C107.403 59.936 108.175 61.2768 109.764 61.2768C110.994 61.2768 111.568 60.4642 111.782 59.6516H112.613C112.226 61.163 111.294 61.935 109.648 61.935C107.443 61.935 106.469 60.3084 106.469 58.2837C106.469 56.2156 107.486 54.375 109.762 54.375C112.068 54.375 112.684 56.3849 112.684 58.3108H107.403ZM107.43 57.6552H111.754C111.754 56.2427 111.082 55.0305 109.707 55.0305C108.462 55.0292 107.601 55.9704 107.43 57.6552Z" fill="#BEBEBE"/>
<path d="M116.093 61.935C114.604 61.935 113.488 61.2348 113.488 59.6516H114.362C114.362 60.735 115.077 61.2768 116.138 61.2768C117.126 61.2768 117.898 60.8055 117.898 59.8385C117.898 58.9676 116.997 58.7387 116.052 58.4679C114.907 58.1401 113.661 57.7826 113.661 56.3849C113.661 54.8314 114.963 54.375 116.181 54.375C117.583 54.375 118.629 54.9154 118.671 56.4133H117.797C117.755 55.5587 117.139 55.0738 116.208 55.0738C115.478 55.0738 114.591 55.3583 114.591 56.2995C114.591 57.1568 115.478 57.3993 116.423 57.6552C117.57 57.9681 118.829 58.3108 118.829 59.7098C118.828 61.335 117.569 61.935 116.093 61.935Z" fill="#BEBEBE"/>
<path d="M122.149 61.935C120.659 61.935 119.543 61.2348 119.543 59.6516H120.417C120.417 60.735 121.132 61.2768 122.194 61.2768C123.182 61.2768 123.954 60.8055 123.954 59.8385C123.954 58.9676 123.051 58.7387 122.107 58.4679C120.962 58.1401 119.717 57.7826 119.717 56.3849C119.717 54.8314 121.019 54.375 122.237 54.375C123.639 54.375 124.685 54.9154 124.728 56.4133H123.853C123.811 55.5587 123.196 55.0738 122.264 55.0738C121.534 55.0738 120.647 55.3583 120.647 56.2995C120.647 57.1568 121.534 57.3993 122.481 57.6552C123.626 57.9681 124.887 58.3108 124.887 59.7098C124.884 61.335 123.624 61.935 122.149 61.935Z" fill="#BEBEBE"/>
</g>
<defs>
<clipPath id="clip0_943_66215">
<rect width="101.32" height="45.9464" fill="white" transform="translate(23.8398 18.5264)"/>
</clipPath>
</defs>
</svg>
