<svg width="44" height="44" viewBox="0 0 44 44" fill="none" xmlns="http://www.w3.org/2000/svg">
<path d="M22.4958 10.1855C16.0128 10.1855 10.7422 15.4807 10.7422 21.9951C10.7422 28.5021 16.0128 33.8055 22.4958 33.8055C28.9801 33.8055 34.2494 28.5014 34.2494 21.9951C34.2494 15.4803 28.98 10.1855 22.4958 10.1855ZM22.4958 31.8015C17.1206 31.8015 12.738 27.4073 12.738 21.9959C12.738 16.5944 17.1121 12.1911 22.4958 12.1911C27.8796 12.1911 32.2536 16.5943 32.2536 21.9959C32.2533 27.399 27.8719 31.8015 22.4958 31.8015Z" fill="#54AB59"/>
<path d="M41.3593 23.6168L40.6506 22.6347C40.3171 22.1762 40.3088 21.5468 40.6432 21.0799L41.3349 20.0894C41.8804 19.3116 42.0757 18.3294 41.8569 17.3959C41.6366 16.4624 41.0344 15.6697 40.195 15.2196L39.1359 14.6467C38.6302 14.3763 38.3627 13.8201 38.4522 13.2547L38.6552 12.0598C38.8101 11.118 38.558 10.1523 37.9635 9.4079C37.361 8.66261 36.4722 8.21305 35.5285 8.17186L34.3225 8.12288C33.7523 8.09808 33.2627 7.71272 33.1088 7.16462L32.7589 6.01009C32.3517 4.59421 31.0399 3.60437 29.5655 3.60437C29.1176 3.60437 28.6696 3.69458 28.2538 3.8747L27.1459 4.34904C26.6329 4.57039 26.0056 4.43181 25.6395 4.0139L24.8334 3.11358C24.2061 2.4089 23.3025 2 22.3662 2C21.4043 2 20.4926 2.41791 19.8568 3.14588L19.0748 4.06295C18.7086 4.4883 18.0891 4.63587 17.5683 4.4235L16.4521 3.96561C16.0452 3.8016 15.6219 3.7117 15.19 3.7117C13.6999 3.7117 12.3801 4.71893 11.9883 6.16735L11.6709 7.33703C11.524 7.88578 11.0356 8.27886 10.4655 8.31109L9.26785 8.38487C8.32319 8.43386 7.43562 8.90044 6.84913 9.65313C6.26172 10.4062 6.02664 11.3806 6.19663 12.3137L6.41691 13.5008C6.52272 14.0653 6.25371 14.6305 5.757 14.9082L4.70651 15.4976C3.8751 15.9642 3.28118 16.7659 3.07726 17.6993C2.87333 18.6328 3.07726 19.6144 3.63998 20.3838L4.34863 21.3579C4.68213 21.817 4.69107 22.4464 4.35603 22.9126L3.66374 23.9031C3.1183 24.6813 2.92301 25.6631 3.14235 26.5966C3.36263 27.5301 3.96484 28.3235 4.80399 28.773L5.86309 29.3459C6.36874 29.6162 6.63622 30.1724 6.54644 30.7379L6.34344 31.9327C6.18918 32.8731 6.44062 33.8403 7.03573 34.5847C7.63826 35.3299 8.52709 35.7795 9.47049 35.8201L10.6765 35.869C11.2466 35.8938 11.7356 36.2783 11.8902 36.8267L12.2237 37.989C12.6306 39.4049 13.9427 40.3956 15.4165 40.3956C15.8644 40.3956 16.3124 40.3057 16.7282 40.1253L17.8349 39.6507C18.3488 39.4302 18.9763 39.5688 19.3422 39.9867L20.149 40.8864C20.7781 41.5911 21.6817 42 22.618 42C23.58 42 24.4917 41.583 25.1274 40.8541L25.9166 39.9371C26.2837 39.5117 26.9023 39.3641 27.424 39.5765L28.5396 40.035C28.9465 40.1987 29.371 40.2889 29.8026 40.2889C31.2927 40.2889 32.6125 39.2817 33.0031 37.8333L33.3205 36.6626C33.4674 36.1145 33.9567 35.7223 34.5265 35.6886L35.7319 35.6157C36.6855 35.5584 37.5647 35.0992 38.1506 34.3468C38.738 33.5935 38.9731 32.6281 38.8031 31.6871L38.5828 30.5001C38.477 29.9346 38.746 29.3704 39.2427 29.0926L40.2932 28.5023C41.1246 28.036 41.7186 27.2341 41.9231 26.3009C42.1264 25.368 41.9225 24.3862 41.3595 23.6167L41.3593 23.6168ZM39.975 25.8673C39.8942 26.2442 39.6576 26.5552 39.3241 26.744L38.2736 27.3334C37.0269 28.0284 36.3593 29.4446 36.6194 30.8521L36.8397 32.0392C36.9131 32.4245 36.815 32.8009 36.5796 33.1035C36.3429 33.4067 36.0005 33.5865 35.6103 33.6107L34.4126 33.6844C32.9873 33.7672 31.7736 34.7487 31.3994 36.1324L31.082 37.2947C30.9271 37.8751 30.3974 38.2765 29.8032 38.2765C29.6311 38.2765 29.4608 38.244 29.2976 38.1789L28.1814 37.7204C27.7742 37.5564 27.3509 37.4661 26.9193 37.4661C25.9583 37.4661 25.0463 37.884 24.4111 38.612L23.6207 39.5219C23.368 39.8158 23.0095 39.9792 22.6184 39.9792C22.2361 39.9792 21.885 39.8242 21.6333 39.5378L20.8265 38.6374C20.1993 37.9334 19.2953 37.5242 18.3507 37.5242C17.8938 37.5242 17.4547 37.6141 17.0389 37.7945L15.9311 38.2682C15.7605 38.342 15.5902 38.3758 15.4106 38.3758C14.8232 38.3758 14.3028 37.9814 14.1396 37.4175L13.806 36.2552C13.4065 34.8806 12.1842 33.9139 10.7586 33.8489L9.5532 33.7999C9.16972 33.7838 8.81987 33.6111 8.5839 33.3082C8.33987 33.0056 8.24299 32.6296 8.30747 32.2526L8.51047 31.0577C8.7471 29.6412 8.06344 28.2418 6.80011 27.5625L5.74164 26.9896C5.39919 26.8095 5.16256 26.4979 5.07341 26.1215C4.98394 25.7451 5.05705 25.3607 5.28535 25.0494L5.97765 24.059C6.80013 22.8896 6.79271 21.3261 5.94525 20.1639L5.2366 19.1898C5.00892 18.8782 4.92655 18.4941 5.01632 18.1177C5.0987 17.7414 5.3347 17.4298 5.66882 17.2423L6.71932 16.6529C7.96505 15.9572 8.63392 14.5414 8.37266 13.1329L8.16071 11.9548C8.08728 11.5694 8.18539 11.1931 8.42079 10.8905C8.65741 10.5879 8.99986 10.4078 9.39009 10.3839L10.5877 10.3101C12.0131 10.2274 13.2181 9.24585 13.6016 7.86219L13.919 6.6925C14.0733 6.11059 14.6036 5.7094 15.1978 5.7094C15.3693 5.7094 15.5402 5.74319 15.7034 5.80799L16.8196 6.26589C17.2265 6.42989 17.6498 6.51979 18.0817 6.51979C19.0427 6.51979 19.9553 6.10189 20.5899 5.37391L21.3803 4.46589C21.633 4.17075 21.9915 4.00675 22.3826 4.00675C22.7649 4.00675 23.116 4.16331 23.3677 4.44946L24.1739 5.34914C24.8014 6.0532 25.705 6.4624 26.6502 6.4624C27.1065 6.4624 27.5462 6.37219 27.962 6.19207L29.0698 5.71773C29.2404 5.64395 29.4107 5.6114 29.5903 5.6114C30.1777 5.6114 30.6981 6.00419 30.8614 6.56847L31.1949 7.73165C31.5944 9.10626 32.8167 10.072 34.2423 10.1374L35.4477 10.1873C35.8312 10.2037 36.181 10.3749 36.4251 10.6781C36.67 10.9806 36.7669 11.3573 36.7024 11.7337L36.4985 12.9291C36.2619 14.345 36.9465 15.7438 38.2089 16.4243L39.268 16.9972C39.6104 17.1764 39.8461 17.488 39.9353 17.8643C40.0251 18.2407 39.9526 18.6261 39.7323 18.9364L39.0406 19.9269C38.2181 21.0975 38.2249 22.6603 39.073 23.8239L39.7816 24.7968C39.9751 25.1068 40.0575 25.4906 39.9751 25.8672L39.975 25.8673Z" fill="#418FDC"/>
<path d="M25.3871 18.7468L21.0214 23.1085L19.6035 21.6762C19.2126 21.2834 18.5853 21.2834 18.1945 21.6762C17.8036 22.069 17.8036 22.6993 18.1871 23.0927L20.313 25.2377C20.4997 25.4253 20.7526 25.5319 21.0217 25.5319C21.2818 25.5319 21.5347 25.4253 21.7223 25.2377L26.7967 20.1707C27.1876 19.7779 27.1876 19.1476 26.8056 18.7548C26.4141 18.3617 25.778 18.3617 25.3871 18.7468L25.3871 18.7468Z" fill="#DC6741"/>
</svg>
