<svg width="44" height="44" viewBox="0 0 44 44" fill="none" xmlns="http://www.w3.org/2000/svg">
<path d="M31.5908 2.0003C25.2996 2.0003 20.1819 7.15926 20.1819 13.4999C20.1819 15.4962 20.6881 17.4321 21.6533 19.1516L21.0175 20.8451L20 23.5556L22.8534 23.1975L25.0565 22.9211C26.9654 24.266 29.2577 25 31.5911 25C37.882 25 43 19.841 43 13.5004C42.9994 7.15953 37.8817 2 31.5911 2L31.5908 2.0003ZM31.5908 23.2532C29.2972 23.2532 27.1935 22.4445 25.5354 21.1009L22.6388 21.4643L23.5769 18.966C22.5281 17.407 21.915 15.526 21.915 13.5005C21.915 8.1144 26.2468 3.74808 31.5906 3.74808C36.9342 3.74808 41.2661 8.11431 41.2661 13.5005C41.2658 18.8867 36.934 23.253 31.5906 23.253L31.5908 23.2532Z" fill="#418FDC"/>
<path d="M13.0002 17C9.69146 17 7 19.6914 7 23C7 26.3086 9.69146 29 13.0002 29C16.3085 28.9997 19 26.3083 19 23C19 19.6914 16.3085 17 13.0002 17ZM13.0002 27.2541C10.6541 27.2541 8.74624 25.3457 8.74624 23.0003C8.74624 20.655 10.6547 18.7465 13.0002 18.7465C15.3455 18.7465 17.2541 20.6549 17.2541 23.0003C17.2541 25.3456 15.3456 27.2541 13.0002 27.2541Z" fill="#1C4891"/>
<path d="M23.9999 37.2677C23.9999 34.0865 21.8719 31.2211 18.7049 30.1371C17.8149 29.833 16.8061 30.0473 16.1353 30.6836L13.472 33.2094C13.2115 33.4561 12.7875 33.4561 12.528 33.2097L9.86404 30.6829C9.1935 30.047 8.18542 29.8314 7.29475 30.1371C4.12841 31.2211 2 34.0868 2 37.2677V43H24L23.9999 37.2677ZM22.2117 41.3041H3.78892V37.268C3.78892 34.7995 5.44215 32.5747 7.90255 31.7331C8.14253 31.6498 8.41765 31.7097 8.60105 31.8833L11.2643 34.4098C12.2223 35.3183 13.78 35.3174 14.737 34.4098L17.4003 31.8833C17.5834 31.7097 17.8582 31.6511 18.0988 31.7325C20.5595 32.5747 22.2124 34.7996 22.2124 37.268L22.2117 41.3041Z" fill="#1C4891"/>
<rect x="6" y="36" width="4" height="1.5" rx="0.75" fill="#54AB59"/>
<circle cx="26.5" cy="13.5" r="1" fill="#DC6741"/>
<circle cx="30" cy="13.5" r="1" fill="#DC6741"/>
<circle cx="33.5" cy="13.5" r="1" fill="#DC6741"/>
<circle cx="37" cy="13.5" r="1" fill="#DC6741"/>
</svg>
