<svg width="44" height="44" viewBox="0 0 44 44" fill="none" xmlns="http://www.w3.org/2000/svg">
<path d="M40.1921 19.5931L38.4696 18.4979L36.4287 12.9968C36.1901 12.3645 35.7611 11.8195 35.1993 11.4349C34.6373 11.0506 33.9697 10.845 33.2858 10.8464H27.7142V6.77486C27.7133 6.03918 27.4167 5.33407 26.8894 4.81406C26.3624 4.29381 25.6475 4.00108 24.9021 4H4.81214C4.06672 4.00112 3.35184 4.29383 2.82479 4.81406C2.2975 5.33403 2.0008 6.03911 2 6.77486V34.7838C2.00085 35.3773 2.2403 35.9462 2.66567 36.3659C3.09103 36.7855 3.66787 37.0218 4.26919 37.0229H6.99991C7.24989 38.4957 8.19489 39.7635 9.54557 40.4376C10.8962 41.1118 12.4915 41.1118 13.8422 40.4376C15.1929 39.7635 16.1379 38.4957 16.3879 37.0229H27.6161C27.826 38.5058 28.7519 39.796 30.0997 40.484C31.4478 41.172 33.0502 41.172 34.3981 40.484C35.7459 39.7961 36.6718 38.5058 36.8816 37.0229H39.7388C40.3389 37.0195 40.9135 36.7824 41.3372 36.363C41.7609 35.9436 41.9991 35.3759 42 34.7837V22.859C42.0023 21.5371 41.3204 20.3055 40.192 19.5929L40.1921 19.5931ZM33.2858 12.8599C33.5523 12.8585 33.8128 12.938 34.032 13.088C34.2509 13.2378 34.4181 13.4507 34.5103 13.6973L36.6775 19.5167C36.755 19.7226 36.8985 19.8977 37.0858 20.0162L39.0982 21.2929V21.2927C39.6371 21.6376 39.9614 22.2295 39.9591 22.8633V27.7604H27.7141V12.8599H33.2858ZM4.81163 6.01355H24.9015C25.3266 6.0158 25.6709 6.35542 25.6728 6.77483V27.7606H4.0399V6.77483C4.04189 6.35543 4.38611 6.01578 4.81119 6.01355H4.81163ZM11.6975 38.9802C10.9743 38.9802 10.2807 38.6967 9.76942 38.1922C9.25811 37.6877 8.97079 37.0034 8.97079 36.2899C8.97079 35.5766 9.25807 34.8923 9.76942 34.3878C10.2808 33.8834 10.9743 33.5999 11.6975 33.5999C12.4207 33.5999 13.1143 33.8833 13.6256 34.3878C14.1367 34.8924 14.4239 35.5766 14.4239 36.2899C14.4231 37.0031 14.1352 37.6869 13.6241 38.1911C13.1131 38.6954 12.4203 38.9791 11.6974 38.9802L11.6975 38.9802ZM32.2444 38.9802C31.5432 38.9802 30.8704 38.7052 30.3744 38.2158C29.8782 37.7264 29.5997 37.0627 29.5997 36.3705C29.5997 35.6783 29.8782 35.0148 30.3744 34.5252C30.8704 34.0358 31.5432 33.7608 32.2444 33.7608C32.946 33.7608 33.6187 34.0358 34.1147 34.5252C34.6107 35.0148 34.8894 35.6783 34.8894 36.3705C34.8883 37.0615 34.6098 37.7242 34.115 38.2133C33.6202 38.7024 32.9491 38.9779 32.2487 38.9802H32.2444ZM39.7307 35.0095H36.7263C36.3303 33.742 35.4012 32.7035 34.1762 32.1579C32.9508 31.6124 31.5468 31.6124 30.3217 32.1579C29.0963 32.7035 28.1675 33.742 27.7712 35.0095H16.2856C15.9084 33.6861 14.9626 32.5922 13.6975 32.0163C12.4326 31.4405 10.975 31.4405 9.71009 32.0163C8.44484 32.5922 7.49898 33.6861 7.12201 35.0095H4.2649C4.1402 35.0072 4.04054 34.9069 4.04054 34.7839V29.7741H39.9594V34.7839C39.9594 34.8437 39.9355 34.901 39.8925 34.9432C39.8498 34.9856 39.7917 35.0095 39.7311 35.0095L39.7307 35.0095Z" fill="#418FDC"/>
<path d="M9.71433 23.1489C10.1619 23.4851 10.8008 23.4006 11.1428 22.9595L19.8207 11.7684C20.1587 11.3234 20.0673 10.6925 19.6166 10.3587C19.1656 10.025 18.5261 10.1152 18.1879 10.5601L9.52229 21.7197C9.35203 21.9329 9.27658 22.2051 9.31245 22.4745C9.34861 22.7436 9.49353 22.9869 9.71418 23.1492L9.71433 23.1489Z" fill="#54AB59"/>
<path d="M15.8779 20.1084V20.9141C15.8779 22.065 16.5003 23.1285 17.5105 23.7041C18.5209 24.2797 19.7657 24.2797 20.7759 23.7041C21.7863 23.1285 22.4087 22.065 22.4087 20.9141V20.1084C22.4087 18.9575 21.7863 17.894 20.7759 17.3184C19.7657 16.7428 18.5209 16.7428 17.5105 17.3184C16.5003 17.894 15.8779 18.9575 15.8779 20.1084ZM20.3679 20.1084V20.9141C20.3679 21.3456 20.1345 21.7445 19.7555 21.9602C19.3768 22.176 18.9099 22.176 18.5309 21.9602C18.1523 21.7445 17.9188 21.3456 17.9188 20.9141V20.1084C17.9188 19.677 18.1523 19.2781 18.5309 19.0623C18.9099 18.8466 19.3768 18.8466 19.7555 19.0623C20.1345 19.2781 20.3679 19.677 20.3679 20.1084Z" fill="#54AB59"/>
<path d="M10.1638 16.4842C11.0296 16.4842 11.8601 16.1449 12.4726 15.5407C13.085 14.9364 13.4289 14.117 13.4289 13.2624V12.4571C13.4289 11.3062 12.8065 10.2424 11.7964 9.66704C10.7862 9.09145 9.5414 9.09145 8.53097 9.66704C7.52082 10.2424 6.89844 11.3062 6.89844 12.4571V13.2624C6.89844 14.117 7.24238 14.9364 7.85479 15.5407C8.4672 16.1449 9.29774 16.4842 10.1639 16.4842H10.1638ZM8.93921 12.4571C8.93921 12.0253 9.17267 11.6267 9.55134 11.4107C9.9303 11.1949 10.397 11.1949 10.7759 11.4107C11.1549 11.6267 11.3881 12.0253 11.3881 12.4571V13.2624C11.3881 13.6942 11.1549 14.0931 10.7759 14.3088C10.397 14.5246 9.93029 14.5246 9.55134 14.3088C9.17267 14.0931 8.93921 13.6942 8.93921 13.2624V12.4571Z" fill="#54AB59"/>
<path fill-rule="evenodd" clip-rule="evenodd" d="M11.7 38.9996C13.1912 38.9996 14.4 37.7908 14.4 36.2996C14.4 34.8084 13.1912 33.5996 11.7 33.5996C10.2088 33.5996 9 34.8084 9 36.2996C9 37.7908 10.2088 38.9996 11.7 38.9996ZM11.7 40.9996C14.2957 40.9996 16.4 38.8953 16.4 36.2996C16.4 33.7039 14.2957 31.5996 11.7 31.5996C9.10426 31.5996 7 33.7039 7 36.2996C7 38.8953 9.10426 40.9996 11.7 40.9996Z" fill="#1C4891"/>
<path fill-rule="evenodd" clip-rule="evenodd" d="M32.2498 39.1002C33.741 39.1002 34.9498 37.8914 34.9498 36.4002C34.9498 34.909 33.741 33.7002 32.2498 33.7002C30.7586 33.7002 29.5498 34.909 29.5498 36.4002C29.5498 37.8914 30.7586 39.1002 32.2498 39.1002ZM32.2498 41.1002C34.8455 41.1002 36.9498 38.9959 36.9498 36.4002C36.9498 33.8045 34.8455 31.7002 32.2498 31.7002C29.6541 31.7002 27.5498 33.8045 27.5498 36.4002C27.5498 38.9959 29.6541 41.1002 32.2498 41.1002Z" fill="#1C4891"/>
<circle cx="11.75" cy="36.25" r="0.75" fill="#DC6741"/>
<circle cx="32.25" cy="36.25" r="0.75" fill="#DC6741"/>
</svg>
