<svg width="149" height="83" viewBox="0 0 149 83" fill="none" xmlns="http://www.w3.org/2000/svg">
<g clip-path="url(#clip0_943_66164)">
<path d="M29.5471 34.4666H23.8398L24.93 30.3203H42.661L41.5708 34.4666H35.8636L32.6893 46.5545H26.3728L29.5471 34.4666Z" fill="#ABABAB"/>
<path d="M44.1355 30.2881H59.9748L58.8846 34.4343H49.3618L48.8168 36.4437H56.8967L55.9027 40.3029H47.8228L46.1876 46.4903H39.8711L44.1355 30.2881Z" fill="#ABABAB"/>
<path d="M66.5811 34.4346C70.9417 34.4346 73.8274 36.0293 73.8274 39.6014C73.8274 42.6314 71.7112 46.8414 64.8176 46.8414C60.7135 46.8414 57.3789 45.2786 57.3789 41.3237C57.3789 37.5283 60.489 34.4346 66.5811 34.4346ZM65.0741 43.5563C67.3185 43.5563 68.1201 40.941 68.1201 39.9204C68.1201 38.517 67.6712 37.7197 66.1322 37.7197C63.8557 37.7197 63.0541 40.4307 63.0541 41.6427C63.0862 42.5995 63.4709 43.5563 65.0741 43.5563Z" fill="#ABABAB"/>
<path d="M76.6484 34.722H82.1633L81.6823 36.5719H81.7464C82.7404 35.328 84.6321 34.435 86.075 34.435C86.7542 34.3957 87.4354 34.4603 88.095 34.6264L87.0369 38.6131C86.3257 38.4238 85.5928 38.3273 84.8566 38.3261C82.4518 38.3261 81.2334 39.1553 80.5601 41.6112L79.2776 46.5548H73.5703L76.6484 34.722Z" fill="#ABABAB"/>
<path d="M98.131 39.2187C98.1631 38.6446 98.0348 38.2938 97.7142 38.0705C97.3936 37.8473 96.9447 37.7197 96.2713 37.7197C93.8025 37.7197 93.1291 40.3031 93.1291 41.3875C93.1291 42.4719 93.4498 43.5563 95.085 43.5563C96.624 43.5563 97.2653 42.4719 97.5859 41.834H103.037C102.075 45.2148 99.3174 46.8414 95.0209 46.8414C88.7044 46.8414 87.4219 43.652 87.4219 41.4513C87.4219 37.4326 90.7244 34.4346 96.4317 34.4346C100.568 34.4346 103.646 35.9017 103.55 39.2187H98.131Z" fill="#ABABAB"/>
<path d="M119.678 43.1101C119.293 43.9075 118.171 46.8417 111.758 46.8417C106.468 46.8417 104.352 44.5135 104.352 41.643C104.352 36.221 109.578 34.4668 113.297 34.4668C116.6 34.4668 120.608 35.9339 120.608 39.6337C120.632 40.3256 120.534 41.0164 120.319 41.6749H109.674C109.674 42.9188 110.219 43.9713 112.015 43.9713C113.265 43.9713 113.971 43.5247 114.259 43.142H119.678V43.1101ZM115.189 39.3147C115.223 39.1896 115.245 39.0614 115.253 38.932C115.253 38.0389 114.548 37.3373 113.105 37.3373C111.566 37.3373 110.572 38.0708 110.155 39.3147H115.189Z" fill="#ABABAB"/>
<path d="M122.82 34.3714L125.161 29.6829C115.285 25.6324 103.486 23.7825 91.9113 24.6755C81.0699 25.5052 70.5422 28.6839 61.0664 33.9887C70.8409 29.4516 81.5101 27.1416 92.296 27.2271C103.486 27.3228 113.426 29.8743 122.82 34.3714Z" fill="#ABABAB"/>
<path d="M72.8636 49.8398H79.7572L79.2762 51.6578H75.1401L74.9156 52.5509H78.4426L77.9937 54.2412H74.4667L73.7613 56.9523H71.0039L72.8636 49.8398Z" fill="#ABABAB"/>
<path d="M80.0459 51.7859H82.4506L82.2262 52.5833H82.2582C82.4946 52.3102 82.784 52.0876 83.1091 51.9286C83.4342 51.7697 83.7883 51.6777 84.15 51.6584C84.4398 51.6561 84.7294 51.6774 85.0157 51.7222L84.5668 53.4445C84.2546 53.3531 83.9302 53.3101 83.6049 53.3169C82.5468 53.3169 82.0338 53.6677 81.7452 54.7521L81.1681 56.889H78.6992L80.0459 51.7859Z" fill="#ABABAB"/>
<path d="M91.5254 55.4217C91.3651 55.7726 90.8842 57.0483 88.0626 57.0483C85.754 57.0483 84.8242 56.0277 84.8242 54.7838C84.8242 52.4237 87.1007 51.6582 88.7359 51.6582C90.1788 51.6582 91.9102 52.2961 91.9102 53.9227C91.929 54.226 91.8853 54.5298 91.7819 54.8157H87.1328C87.1328 55.3579 87.3572 55.8044 88.1588 55.8044C88.3401 55.8207 88.5228 55.7977 88.6943 55.7371C88.8659 55.6766 89.0223 55.5799 89.1528 55.4536H91.5254V55.4217ZM89.5696 53.7951C89.5771 53.7414 89.5878 53.6881 89.6016 53.6356C89.6016 53.2529 89.281 52.934 88.6718 52.934C88.3916 52.9118 88.1121 52.9849 87.8791 53.1413C87.6461 53.2978 87.4734 53.5283 87.3893 53.7951H89.5696Z" fill="#ABABAB"/>
<path d="M93.3857 51.7847H95.8546L94.5079 56.9197H92.0391L93.3857 51.7847ZM96.0149 51.2425H93.546L93.8987 49.8711H96.3676L96.0149 51.2425Z" fill="#ABABAB"/>
<path d="M102.556 56.027C102.171 57.4623 101.85 58.7062 98.7082 58.7062C97.9387 58.7062 95.5981 58.6424 95.6943 56.9839H98.1632C98.1576 57.0681 98.1721 57.1525 98.2056 57.2301C98.239 57.3077 98.2904 57.3763 98.3555 57.4304C98.5385 57.5042 98.7356 57.5369 98.9327 57.5261C99.6701 57.5261 99.8625 57.0796 99.9908 56.6011L100.151 56.0589H100.119C99.6858 56.4102 99.1384 56.5917 98.58 56.5692C97.0409 56.5692 96.047 55.7719 96.047 54.5599C96.047 53.0928 97.1371 51.5938 99.1892 51.5938C99.9908 51.5938 100.728 51.7851 101.113 52.3911H101.145L101.305 51.7213H103.71L102.556 56.027ZM98.5159 54.528C98.5104 54.6411 98.5293 54.754 98.5714 54.8593C98.6134 54.9645 98.6775 55.0595 98.7595 55.1381C98.8415 55.2166 98.9394 55.2768 99.0467 55.3146C99.154 55.3524 99.2682 55.3669 99.3816 55.3573C100.568 55.3573 100.76 54.241 100.76 53.8901C100.76 53.5393 100.728 53.0928 99.8305 53.0928C98.8365 53.0928 98.5159 53.9539 98.5159 54.528Z" fill="#ABABAB"/>
<path d="M105.344 49.8398H107.813L107.14 52.4233H107.172C107.423 52.1698 107.722 51.9687 108.053 51.8317C108.383 51.6948 108.738 51.6249 109.095 51.6259C110.25 51.6259 111.212 52.0087 111.212 53.0293C111.193 53.3635 111.139 53.6949 111.051 54.018L110.25 56.9204H107.781L108.422 54.5602C108.51 54.2789 108.574 53.9909 108.614 53.699C108.614 53.3801 108.326 53.1887 107.909 53.1887C107.108 53.1887 106.851 53.6353 106.691 54.1775L105.953 56.8885H103.484L105.344 49.8398Z" fill="#ABABAB"/>
<path d="M115.733 51.7855H117.079L116.727 52.9975H115.412L114.963 54.656C114.891 54.8172 114.847 54.99 114.835 55.1663C114.835 55.3257 114.963 55.4852 115.348 55.4852C115.733 55.4852 115.957 55.4533 116.15 55.4533L115.765 56.8567C115.316 56.9204 114.867 56.9523 114.418 56.9842C113.885 57.0223 113.349 56.9462 112.847 56.761C112.658 56.6774 112.496 56.5442 112.377 56.3756C112.258 56.207 112.188 56.0094 112.174 55.8041C112.18 55.565 112.223 55.3283 112.302 55.1025L112.879 52.9975H111.789L112.142 51.7855H113.232L113.681 50.2227H116.15L115.733 51.7855Z" fill="#ABABAB"/>
</g>
<defs>
<clipPath id="clip0_943_66164">
<rect width="101.32" height="34.2512" fill="white" transform="translate(23.8398 24.4551)"/>
</clipPath>
</defs>
</svg>
