<svg width="149" height="83" viewBox="0 0 149 83" fill="none" xmlns="http://www.w3.org/2000/svg">
<g clip-path="url(#clip0_943_66181)">
<path fill-rule="evenodd" clip-rule="evenodd" d="M121.276 28.0981C122.407 28.2279 123.024 28.8352 122.95 29.7623L122.926 30.0249L119.153 54.5426C118.935 55.5743 118.502 55.9842 117.553 56.0559C103.431 57.1061 96.3611 57.5982 73.6679 57.6036C50.971 57.5982 43.8996 57.1061 29.7802 56.0559C28.8308 55.9842 28.3985 55.5856 28.1852 54.5843L24.3995 29.9838L24.3828 29.7619C24.3393 29.2195 24.5028 28.2763 26.0904 28.0931C26.0904 28.0931 47.9258 25.6123 73.6458 25.6123C99.3658 25.6123 121.276 28.0981 121.276 28.0981Z" fill="#ABABAB"/>
<path fill-rule="evenodd" clip-rule="evenodd" d="M30.2932 54.825C30.295 54.825 30.368 54.8646 30.5956 54.8815C44.9313 55.9484 52.2045 56.4204 74.3903 56.4258C96.57 56.4204 103.843 55.9484 118.18 54.8815C118.412 54.8642 118.483 54.8236 118.486 54.8214C118.485 54.8214 118.56 54.7348 118.636 54.392L122.401 29.9254C122.408 29.8373 122.417 29.7293 122.417 29.7293C122.425 29.6333 122.437 29.4833 121.844 29.4192C70.9704 23.9215 27.3894 29.3607 26.9555 29.4163C26.34 29.4871 26.3517 29.6344 26.3607 29.7421L26.3749 29.932L30.1386 54.392C30.214 54.7326 30.2887 54.8205 30.2932 54.8252C30.2932 54.825 30.2932 54.825 30.2932 54.825ZM74.3903 58.9344C52.114 58.9286 44.8084 58.4546 30.4074 57.3831C28.8955 57.2697 27.9989 56.45 27.6668 54.877C27.6621 54.8543 27.658 54.8317 27.6546 54.8086L23.8781 30.2665C23.8745 30.2458 23.8722 30.2254 23.8698 30.2044C23.8662 30.1712 23.8491 29.9317 23.8491 29.9317C23.7507 28.7109 24.4246 27.1821 26.6504 26.9265C27.0701 26.8722 70.9296 21.3938 122.116 26.9254C123.954 27.1242 125.058 28.308 124.927 29.9418L124.909 30.1492C124.907 30.184 124.902 30.2322 124.897 30.2665L121.12 54.8086C121.117 54.8317 121.113 54.8543 121.108 54.877C120.776 56.45 119.879 57.2697 118.368 57.3831C103.966 58.4546 96.6602 58.9286 74.3903 58.9344Z" fill="#CCCECF"/>
<path fill-rule="evenodd" clip-rule="evenodd" d="M39.8389 44.4057L36.127 32.1123H40.8012L42.2035 38.6012L43.5783 32.1123H48.1424L44.4305 44.4057V51.2775H39.8389V44.4057Z" fill="#CCCECF"/>
<path fill-rule="evenodd" clip-rule="evenodd" d="M49.9062 32.1123H58.8422V36.4383H54.4981V39.5321H58.3748V43.7483H54.4981V46.952H58.9247V51.2775H49.9062V32.1123Z" fill="#CCCECF"/>
<path fill-rule="evenodd" clip-rule="evenodd" d="M61.0156 32.1123H65.6075V46.952H69.3466V51.2775H61.0156V32.1123Z" fill="#CCCECF"/>
<path fill-rule="evenodd" clip-rule="evenodd" d="M71.4258 32.1123H76.0174V46.952H79.7568V51.2775H71.4258V32.1123Z" fill="#CCCECF"/>
<path fill-rule="evenodd" clip-rule="evenodd" d="M87.9258 42.4055V40.9839C87.9258 36.9033 87.4487 36.1664 86.6266 36.1664C85.8312 36.1664 85.3538 36.9033 85.3538 40.9839V42.4055C85.3538 46.4858 85.8312 47.2228 86.6266 47.2228C87.4487 47.2228 87.9258 46.4858 87.9258 42.4055ZM80.8203 42.3264V41.0628C80.8203 35.1133 83.0208 32.1123 86.6266 32.1123C90.2325 32.1123 92.433 35.1133 92.433 41.0628V42.3264C92.433 48.2757 90.2325 51.2769 86.6266 51.2769C83.0208 51.2769 80.8203 48.2757 80.8203 42.3264Z" fill="#CCCECF"/>
<path fill-rule="evenodd" clip-rule="evenodd" d="M93.0859 32.1123H97.8701L98.9422 42.6925L100.262 32.1123H104.084L105.404 42.6925L106.476 32.1123H111.205L108.181 51.2769H103.397L102.132 42.6925L100.867 51.2769H96.1102L93.0859 32.1123Z" fill="#CCCECF"/>
</g>
<defs>
<clipPath id="clip0_943_66181">
<rect width="101.32" height="34.4793" fill="white" transform="translate(23.8398 24.4551)"/>
</clipPath>
</defs>
</svg>
