<svg width="16" height="16" viewBox="0 0 16 16" fill="none" xmlns="http://www.w3.org/2000/svg">
<path d="M0 8C0 3.58172 3.58172 0 8 0C12.4183 0 16 3.58172 16 8C16 12.4183 12.4183 16 8 16C3.58172 16 0 12.4183 0 8Z" fill="#171717"/>
<g clip-path="url(#clip0_990_32347)">
<mask id="mask0_990_32347" style="mask-type:alpha" maskUnits="userSpaceOnUse" x="1" y="6" width="442" height="50">
<rect x="1.1875" y="6" width="441" height="50" fill="#D9D9D9"/>
</mask>
<g mask="url(#mask0_990_32347)">
<path d="M1.72092 6.41683H1.74361L2.34513 7.55069H3.31265V6.07431H2.74519L2.77924 7.20817H2.75654L2.14651 6.07431H1.1875V7.55069H1.75496L1.72092 6.41683Z" fill="white"/>
<path d="M4.5358 7.5625C5.11178 7.5625 5.52035 7.47589 5.52035 7.02116V6.60384C5.52035 6.14911 5.11178 6.0625 4.5358 6.0625C3.95983 6.0625 3.55125 6.14911 3.55125 6.60384V7.02116C3.55125 7.47589 3.95983 7.5625 4.5358 7.5625ZM4.5358 7.21998C4.24072 7.21998 4.14425 7.19833 4.13574 6.97785V6.64518C4.14425 6.42667 4.24072 6.40502 4.5358 6.40502C4.83088 6.40502 4.93586 6.42667 4.93586 6.64518V6.97785C4.93586 7.19833 4.83088 7.21998 4.5358 7.21998Z" fill="white"/>
<path d="M6.31414 6.81644V6.41683H6.75392C6.94118 6.41683 6.98942 6.45423 6.98942 6.58612C6.98942 6.75344 6.99793 6.81644 6.75392 6.81644H6.31414ZM5.74667 7.55069H6.31414V7.15896H6.75392C6.92416 7.15896 6.99225 7.23376 6.98658 7.344V7.55069H7.55404V7.25345C7.55404 7.08612 7.40367 6.99754 7.17101 6.99163V6.97589C7.5739 6.91093 7.5739 6.76722 7.5739 6.52116C7.5739 6.15305 7.33273 6.08022 6.84188 6.07431H5.74667V7.55069Z" fill="white"/>
<path d="M7.80993 7.55069H8.96472C9.55772 7.55069 9.74499 7.35974 9.74499 6.9562V6.64715C9.74499 6.22785 9.48112 6.07431 8.88812 6.07431H7.80993V7.55069ZM8.3774 6.41683H8.87393C9.07254 6.41683 9.1605 6.4562 9.1605 6.64715V6.9562C9.1605 7.11171 9.08389 7.20817 8.87393 7.20817H8.3774V6.41683Z" fill="white"/>
<path d="M10.5774 6.07431H10.01V7.55069H10.5774V6.07431Z" fill="white"/>
<path d="M11.6335 6.64124C11.4832 6.63337 11.4009 6.62943 11.4009 6.51132C11.4009 6.42864 11.4264 6.38533 11.7328 6.38533C11.9598 6.38533 12.0506 6.38533 12.0506 6.53691H12.5954V6.47589C12.5954 6.06841 12.1982 6.0625 11.7328 6.0625C11.1767 6.0625 10.8334 6.09006 10.8334 6.51329C10.8334 6.93652 11.1398 6.93455 11.6647 6.96014L11.7896 6.96604C12.0563 6.97785 12.0875 6.97589 12.0875 7.10384C12.0875 7.22785 11.9995 7.23967 11.7328 7.23967C11.4548 7.23967 11.3753 7.22392 11.3753 7.07037H10.8306C10.8306 7.55463 11.1909 7.5625 11.7328 7.5625C12.6692 7.5625 12.655 7.32234 12.655 7.07825C12.655 6.73967 12.4989 6.68455 11.869 6.65305L11.6335 6.64124Z" fill="white"/>
<path d="M13.4773 6.07431H12.9098V7.55069H13.4773V6.97195H13.6475L14.2405 7.55069H14.9442L14.1327 6.79872L14.8818 6.07431H14.1951L13.6475 6.62943H13.4773V6.07431Z" fill="white"/>
<path d="M16.5112 6.4188H16.5283L17.073 7.55069H17.5639L18.103 6.4188H18.1228L18.0661 7.55069H18.6336V6.07431H17.7114L17.3255 7.00148H17.3057L16.8999 6.07431H16.0005V7.55069H16.568L16.5112 6.4188Z" fill="white"/>
<path d="M20.1993 7.29675L20.3099 7.55069H20.8887L20.2418 6.07431H19.3793L18.7409 7.55069H19.331L19.436 7.29675H20.1993ZM20.0858 7.00935H19.558L19.8162 6.36959H19.8219L20.0858 7.00935Z" fill="white"/>
<path d="M21.7354 6.64124C21.585 6.63337 21.5027 6.62943 21.5027 6.51132C21.5027 6.42864 21.5283 6.38533 21.8347 6.38533C22.0617 6.38533 22.1525 6.38533 22.1525 6.53691H22.6972V6.47589C22.6972 6.06841 22.3 6.0625 21.8347 6.0625C21.2786 6.0625 20.9353 6.09006 20.9353 6.51329C20.9353 6.93652 21.2417 6.93455 21.7666 6.96014L21.8914 6.96604C22.1581 6.97785 22.1894 6.97589 22.1894 7.10384C22.1894 7.22785 22.1014 7.23967 21.8347 7.23967C21.5566 7.23967 21.4772 7.22392 21.4772 7.07037H20.9324C20.9324 7.55463 21.2928 7.5625 21.8347 7.5625C22.771 7.5625 22.7568 7.32234 22.7568 7.07825C22.7568 6.73967 22.6008 6.68455 21.9709 6.65305L21.7354 6.64124Z" fill="white"/>
<path d="M23.5791 6.07431H23.0117V7.55069H23.5791V6.97195H23.7494L24.3424 7.55069H25.046L24.2345 6.79872L24.9836 6.07431H24.297L23.7494 6.62943H23.5791V6.07431Z" fill="white"/>
<path d="M25.6786 6.07431H25.1111V7.55069H25.6786V6.07431Z" fill="white"/>
<path d="M26.5333 6.41683H26.556L27.1575 7.55069H28.125V6.07431H27.5575L27.5916 7.20817H27.5689L26.9589 6.07431H25.9998V7.55069H26.5673L26.5333 6.41683Z" fill="white"/>
</g>
</g>
<defs>
<clipPath id="clip0_990_32347">
<rect width="13.7812" height="3.84375" fill="white" transform="translate(1.1875 6)"/>
</clipPath>
</defs>
</svg>
